<?xml version="1.0" standalone="no"?>
<!DOCTYPE svg PUBLIC "-//W3C//DTD SVG 20010904//EN"
 "http://www.w3.org/TR/2001/REC-SVG-20010904/DTD/svg10.dtd">
<svg version="1.0" xmlns="http://www.w3.org/2000/svg"
 width="3472.000000pt" height="3472.000000pt" viewBox="0 0 3472.000000 3472.000000"
 preserveAspectRatio="xMidYMid meet">
<metadata>
Created by potrace 1.14, written by Peter Selinger 2001-2017
</metadata>
<g transform="translate(0.000000,3472.000000) scale(0.100000,-0.100000)"
fill="#000000" stroke="none">
<path d="M2259 21506 c-1 -6 -3 -51 -4 -101 -1 -49 -3 -95 -4 -102 -1 -15 -31
-6 -48 15 -7 9 -13 13 -13 9 0 -4 -23 7 -51 25 -50 30 -52 31 -65 13 -8 -10
-14 -25 -14 -32 0 -7 -4 -13 -10 -13 -5 0 -10 -4 -10 -10 0 -5 -26 -58 -58
-117 -66 -121 -128 -237 -210 -393 -30 -58 -59 -109 -63 -114 -9 -10 95 -75
271 -168 41 -22 80 -44 85 -48 6 -5 13 -9 18 -9 4 0 21 -8 37 -16 23 -12 29
-21 25 -38 -71 -323 -180 -683 -261 -864 -8 -17 -14 -33 -14 -36 0 -2 -17 -40
-37 -83 -20 -44 -35 -85 -34 -91 1 -7 -2 -13 -6 -13 -4 0 -19 -27 -33 -60 -14
-33 -29 -60 -33 -60 -5 0 -6 -4 -2 -9 3 -5 -2 -17 -11 -25 -8 -9 -13 -16 -9
-16 3 0 -7 -24 -23 -52 -16 -29 -42 -78 -58 -108 -16 -30 -32 -56 -36 -58 -5
-2 -8 -7 -8 -12 0 -12 -81 -148 -151 -254 -33 -48 -59 -90 -59 -93 0 -2 -13
-21 -28 -41 -16 -20 -55 -73 -88 -117 -65 -88 -83 -111 -101 -130 -7 -8 -13
-16 -13 -20 0 -5 -32 -42 -92 -106 -14 -16 -25 -29 -23 -29 4 0 -40 -49 -139
-154 -63 -67 -66 -69 -90 -56 -14 7 -34 20 -43 29 -23 21 -115 88 -173 126
-25 17 -47 32 -50 35 -3 3 -37 26 -75 51 -77 50 -76 51 -111 -16 -29 -56 -121
-230 -154 -290 -15 -27 -51 -95 -80 -150 -29 -55 -66 -124 -81 -152 l-29 -53
42 -27 c24 -16 44 -31 46 -35 2 -5 7 -8 12 -8 4 0 27 -12 49 -27 l42 -27 -26
-15 c-14 -9 -25 -19 -25 -23 0 -5 -6 -8 -13 -8 -8 0 -22 -9 -32 -20 -10 -11
-22 -20 -27 -20 -5 0 -22 -10 -38 -22 l-29 -21 51 -96 c28 -53 65 -123 83
-156 31 -57 72 -135 155 -290 32 -61 72 -134 86 -157 4 -6 99 45 114 61 3 4
39 29 80 56 41 28 112 78 157 113 45 34 85 62 88 62 13 0 197 -201 285 -310
19 -24 43 -52 53 -62 9 -10 17 -21 17 -24 0 -3 6 -11 13 -19 50 -53 242 -328
320 -460 7 -11 19 -31 28 -45 16 -26 50 -86 122 -220 22 -41 44 -79 48 -85 5
-5 9 -17 9 -26 0 -10 4 -19 9 -21 7 -2 55 -106 143 -308 19 -45 27 -64 56
-145 17 -44 33 -89 38 -100 4 -11 8 -22 8 -25 1 -3 4 -10 8 -16 4 -6 9 -21 12
-35 2 -13 16 -60 31 -104 15 -44 29 -87 30 -95 2 -8 4 -15 5 -15 1 0 3 -7 5
-15 2 -8 13 -51 25 -95 12 -44 30 -118 40 -165 10 -47 21 -92 25 -101 7 -19
-19 -47 -70 -75 -19 -10 -35 -22 -35 -26 0 -5 -5 -8 -10 -8 -12 0 -73 -41 -78
-52 -2 -5 -8 -8 -14 -8 -5 0 -20 -8 -33 -17 -12 -10 -31 -24 -41 -30 -11 -7
-49 -33 -86 -58 -37 -25 -72 -45 -78 -45 -5 0 -10 -5 -10 -10 0 -6 -8 -14 -17
-18 -38 -16 -93 -55 -94 -65 -3 -58 -1 -538 3 -542 2 -3 154 -5 336 -6 248 0
332 -3 333 -12 1 -7 3 -37 4 -67 1 -30 3 -61 4 -67 1 -10 83 -13 375 -13 290
0 375 3 378 13 8 22 -1 292 -17 522 l-6 90 61 40 c34 22 69 45 78 50 9 6 94
62 187 125 94 63 175 117 180 120 6 3 92 60 193 128 101 67 187 122 192 122 5
0 10 4 12 9 2 4 39 31 83 59 44 28 85 55 90 60 48 40 229 151 238 145 22 -12
242 -158 247 -163 6 -6 203 -140 228 -155 9 -5 37 -24 62 -41 42 -29 229 -155
515 -348 66 -44 122 -84 123 -88 2 -5 8 -8 14 -8 6 0 26 -11 44 -25 18 -14 35
-25 39 -25 3 0 18 -11 33 -25 15 -14 31 -25 37 -25 5 -1 23 -11 38 -24 26 -21
28 -26 23 -82 -9 -95 -20 -400 -17 -451 l1 -23 375 0 c206 0 375 3 376 8 1 4
2 33 4 65 1 32 6 61 9 65 4 3 140 6 302 5 161 -2 295 1 295 5 1 4 2 121 3 260
l2 254 -174 116 c-96 64 -179 122 -186 128 -6 6 -16 13 -21 15 -6 2 -36 22
-68 43 -63 43 -63 45 -38 149 5 20 7 37 5 37 -3 0 0 8 5 18 5 9 12 31 15 47
12 68 85 332 103 375 3 8 7 17 8 20 13 54 116 331 150 405 7 17 32 73 55 125
23 52 46 101 52 108 6 6 7 12 2 12 -5 0 -4 4 1 8 6 4 29 45 53 92 53 106 106
204 138 252 13 21 24 42 24 48 0 5 5 10 10 10 6 0 10 6 10 13 0 7 7 22 15 32
8 11 47 70 87 130 39 61 81 122 92 136 12 14 28 36 36 49 8 12 23 32 32 43 10
12 21 27 25 32 59 75 119 151 123 155 3 3 20 23 39 45 47 56 186 207 244 267
l49 49 31 -24 c18 -13 64 -45 102 -72 39 -27 72 -52 75 -55 9 -10 45 -31 63
-36 9 -4 17 -10 17 -14 0 -5 8 -11 18 -14 10 -4 27 -14 38 -24 10 -9 31 -23
47 -31 25 -13 29 -13 42 5 8 10 15 22 15 25 0 4 20 42 43 85 47 85 97 178 197
369 35 66 67 122 72 123 4 2 8 11 8 20 0 8 7 23 16 33 21 23 15 31 -67 84 -38
25 -69 47 -69 50 0 2 34 25 75 50 41 26 75 49 75 51 0 12 -25 54 -32 54 -4 0
-8 8 -8 18 0 10 -4 22 -9 28 -4 5 -27 45 -51 89 -23 44 -57 107 -75 140 -36
65 -94 176 -159 298 -22 42 -43 77 -46 77 -3 0 -50 -29 -105 -65 -54 -36 -102
-65 -106 -65 -4 0 -9 -4 -11 -8 -1 -4 -33 -28 -70 -54 -36 -25 -80 -56 -97
-69 l-32 -23 -82 85 c-72 75 -114 122 -222 244 -15 17 -38 46 -53 65 -14 19
-31 40 -36 45 -18 17 -76 93 -76 100 0 3 -9 15 -20 27 -11 12 -32 40 -47 62
-15 23 -30 43 -33 46 -3 3 -19 26 -35 52 -17 27 -33 48 -37 48 -5 0 -8 4 -8 9
0 5 -31 58 -68 118 -38 59 -80 128 -93 153 -13 25 -26 47 -29 50 -3 3 -15 25
-28 50 -13 25 -42 81 -64 125 -23 44 -43 82 -43 85 -1 3 -19 43 -42 90 -51
109 -134 304 -139 330 0 3 -6 19 -13 35 -17 38 -100 287 -104 311 -2 11 -7 27
-11 36 -4 9 -9 22 -10 30 -1 7 -8 33 -15 58 -7 25 -15 52 -16 60 -2 8 -11 43
-20 77 -8 34 -18 74 -20 90 -3 15 -6 37 -8 48 -3 17 17 31 122 86 103 54 304
170 320 185 4 4 -20 66 -28 74 -3 3 -17 25 -29 50 -42 79 -139 262 -187 350
-25 47 -58 110 -73 140 -15 30 -30 57 -33 60 -3 3 -8 13 -12 23 -5 14 -10 16
-24 7 -27 -16 -83 -49 -130 -77 l-43 -25 -1 44 c-1 23 -2 72 -3 108 l-1 65
-377 1 c-338 1 -378 -1 -379 -15 -3 -51 7 -319 17 -452 l6 -87 -33 -7 c-18 -4
-40 -11 -49 -15 -16 -9 -125 -42 -149 -46 -8 -2 -25 -5 -38 -9 -13 -3 -26 -6
-30 -6 -5 -1 -15 -5 -24 -10 -9 -4 -30 -11 -47 -14 -29 -5 -141 -29 -187 -40
-11 -3 -38 -7 -60 -10 -22 -2 -51 -7 -65 -10 -35 -8 -68 -13 -220 -31 -286
-34 -672 -34 -940 0 -19 3 -55 7 -79 10 -48 6 -116 15 -141 20 -8 2 -33 6 -55
10 -111 20 -310 64 -345 77 -14 4 -36 11 -50 13 -14 3 -65 18 -115 34 l-90 28
2 40 c1 21 5 89 8 149 9 151 13 337 8 356 -4 14 -45 16 -379 16 -263 0 -374
-3 -375 -11z m3601 -1413 c8 -32 15 -62 16 -68 5 -24 44 -165 60 -215 9 -30
17 -59 18 -65 6 -30 111 -337 126 -370 5 -11 23 -56 40 -100 17 -44 42 -104
55 -133 14 -29 25 -54 25 -57 0 -14 141 -303 216 -441 170 -317 410 -670 642
-947 75 -90 166 -191 254 -283 l38 -40 -57 -61 c-84 -88 -160 -172 -196 -217
-18 -21 -46 -55 -63 -75 -38 -44 -183 -230 -204 -261 -8 -12 -28 -41 -45 -64
-26 -36 -138 -203 -165 -246 -5 -8 -20 -31 -32 -50 -13 -19 -29 -47 -37 -62
-8 -16 -18 -28 -23 -28 -4 0 -8 -8 -8 -17 0 -9 -6 -24 -14 -32 -27 -30 -254
-473 -306 -596 -13 -33 -39 -93 -54 -127 -18 -42 -78 -198 -101 -263 -9 -27
-21 -59 -26 -70 -14 -35 -89 -278 -95 -308 -2 -16 -8 -37 -13 -46 -5 -9 -16
-50 -26 -91 -10 -41 -20 -69 -23 -62 -2 6 -8 12 -14 12 -6 0 -27 14 -48 30
-21 17 -41 30 -44 30 -4 0 -12 5 -19 10 -7 6 -43 32 -82 58 l-70 48 0 447 1
447 -26 0 c-14 1 -153 1 -310 1 l-285 0 -1 -59 c0 -32 -4 -64 -8 -70 -3 -6 -2
-13 3 -17 7 -3 7 -15 1 -29 -5 -13 -6 -26 -3 -29 8 -9 9 -117 1 -117 -4 0 -3
-13 2 -30 5 -17 5 -30 0 -30 -5 0 -6 -10 -1 -22 4 -11 6 -31 3 -44 -4 -20 -7
-21 -26 -11 -11 7 -23 14 -26 17 -3 3 -52 36 -110 75 -58 38 -107 72 -110 75
-3 3 -13 10 -22 15 -28 16 -313 208 -318 214 -3 3 -17 12 -31 20 -24 12 -30
10 -78 -23 -28 -20 -55 -36 -60 -36 -5 0 -11 -3 -13 -8 -4 -10 -188 -132 -199
-132 -5 0 -9 -4 -9 -10 0 -5 -6 -10 -14 -10 -8 0 -16 -3 -18 -7 -5 -11 -97
-73 -108 -73 -6 0 -10 -4 -10 -8 0 -5 -12 -15 -27 -23 -16 -8 -32 -18 -38 -22
-33 -26 -370 -247 -377 -247 -4 0 -8 -3 -8 -8 0 -4 -17 -16 -37 -27 -20 -11
-41 -24 -47 -30 -6 -5 -83 -57 -171 -115 -88 -58 -162 -107 -165 -110 -9 -9
-106 -70 -113 -70 -3 0 -9 15 -12 33 -11 47 -51 186 -92 317 -21 63 -36 118
-35 123 1 4 -3 7 -8 7 -6 0 -10 9 -10 19 0 10 -13 52 -30 92 -16 41 -30 77
-30 81 0 6 -69 173 -105 253 -7 17 -23 53 -35 80 -59 132 -222 447 -246 475
-7 8 -12 17 -11 20 0 3 -6 16 -15 30 -101 163 -148 243 -148 250 0 5 -4 10 -8
12 -7 2 -94 125 -147 206 -30 47 -250 325 -280 355 -15 15 -25 27 -23 27 5 0
-55 66 -155 173 l-37 41 32 34 c81 84 98 103 219 246 14 17 33 40 42 51 9 11
36 45 60 75 72 91 207 279 207 289 0 5 4 11 8 13 17 6 232 348 232 368 0 5 5
10 10 10 6 0 10 4 10 9 0 5 18 41 40 81 71 125 229 443 250 505 2 6 16 37 30
70 26 59 37 85 38 95 0 3 14 37 30 75 41 96 140 390 168 498 4 15 4 17 3 20 0
1 5 16 11 32 7 17 13 37 15 45 2 8 8 35 15 60 7 25 14 56 16 70 3 14 7 32 10
40 3 8 8 26 10 39 3 14 7 29 10 33 6 9 59 2 79 -10 6 -4 15 -7 20 -8 6 -1 55
-14 110 -29 95 -25 121 -31 233 -55 51 -11 58 -13 147 -29 33 -6 69 -13 80
-15 18 -3 51 -8 160 -23 52 -7 108 -13 160 -18 28 -2 84 -7 125 -11 41 -3 126
-7 187 -8 62 0 113 -3 113 -6 0 -3 17 -4 37 -3 21 1 38 2 38 3 0 0 63 3 140 5
194 6 373 19 435 30 8 1 40 6 70 10 86 11 148 20 225 35 28 5 61 11 75 14 24
4 195 42 233 52 9 2 27 6 39 9 31 7 164 45 213 61 22 7 45 13 51 14 6 0 17
-26 24 -57z"/>
<path d="M12681 20207 c1 -24 -1 -49 -5 -55 -3 -6 -2 -13 3 -16 8 -5 4 -86 -5
-95 -2 -2 1 -12 7 -22 7 -13 6 -19 -1 -19 -7 0 -8 -6 -1 -19 6 -10 8 -21 5
-23 -7 -8 -8 -133 -1 -144 3 -6 2 -26 -2 -46 -5 -20 -5 -42 -1 -49 5 -7 4 -23
0 -35 -6 -14 -5 -26 0 -29 5 -3 7 -15 5 -27 -3 -12 -5 -36 -5 -53 0 -16 0 -57
0 -90 -1 -33 -1 -79 -2 -101 0 -23 2 -46 5 -51 3 -5 2 -25 -2 -45 -5 -20 -5
-42 -1 -49 5 -7 4 -23 0 -35 -5 -13 -5 -26 -1 -28 8 -5 4 -86 -5 -95 -2 -2 1
-12 7 -22 7 -13 6 -19 -1 -19 -7 0 -8 -6 -1 -19 6 -10 8 -21 5 -23 -7 -8 -8
-133 -1 -144 3 -6 2 -26 -2 -46 -5 -20 -5 -42 -1 -49 5 -7 4 -23 0 -35 -6 -14
-5 -26 0 -29 5 -3 7 -15 5 -27 -3 -12 -5 -36 -5 -53 0 -16 0 -57 0 -90 -1 -33
-1 -79 -2 -101 0 -23 2 -46 5 -51 3 -5 2 -25 -2 -45 -5 -20 -5 -42 -1 -49 5
-7 4 -23 0 -35 -5 -13 -5 -26 -1 -28 8 -5 4 -86 -5 -95 -2 -2 1 -12 7 -22 7
-13 6 -19 -1 -19 -7 0 -8 -6 -1 -19 6 -10 8 -21 5 -23 -7 -8 -8 -133 -1 -144
3 -6 2 -26 -2 -46 -5 -20 -5 -42 -1 -49 5 -7 4 -23 0 -35 -6 -14 -5 -26 0 -29
5 -3 7 -15 5 -27 -4 -20 -6 -62 -5 -113 1 -19 8 -20 165 -20 104 0 166 3 168
10 2 5 5 264 5 575 2 506 4 613 13 630 1 3 3 10 4 15 13 68 79 177 152 251 40
41 77 74 82 74 5 0 16 6 23 13 33 33 190 93 273 104 90 13 242 5 320 -16 80
-22 113 -39 167 -87 37 -33 98 -143 98 -179 0 -12 3 -25 7 -29 13 -13 14 -53
16 -701 1 -352 5 -645 9 -650 4 -7 67 -10 165 -10 l158 0 -1 715 c0 393 -3
729 -8 745 -50 204 -102 295 -227 400 -19 17 -108 65 -129 70 -3 1 -32 10 -65
20 -129 39 -315 52 -460 31 -64 -9 -204 -46 -230 -60 -11 -5 -22 -11 -25 -11
-20 -5 -76 -36 -137 -78 -64 -43 -113 -90 -176 -166 -10 -12 -21 -20 -25 -17
-4 2 -7 234 -7 515 l0 511 -167 0 -168 0 1 -43z"/>
<path d="M18627 20163 c-4 -3 -46 -7 -94 -9 -105 -3 -185 -11 -273 -25 -36 -6
-74 -12 -85 -14 -11 -2 -40 -8 -65 -15 -25 -7 -56 -14 -69 -17 -13 -2 -31 -8
-40 -12 -9 -5 -19 -10 -23 -10 -45 -9 -202 -88 -259 -129 -153 -114 -245 -260
-266 -427 -13 -93 -3 -237 19 -295 5 -14 9 -27 10 -30 0 -3 6 -20 14 -39 8
-18 14 -37 14 -41 0 -4 7 -13 15 -20 8 -6 13 -15 12 -18 -3 -11 54 -84 107
-135 74 -71 197 -142 341 -197 11 -4 22 -8 25 -8 3 -1 30 -10 60 -20 30 -11
57 -20 60 -20 3 0 12 -3 20 -6 13 -4 137 -32 180 -41 8 -1 49 -8 90 -15 75
-12 100 -16 143 -25 12 -2 40 -6 62 -9 48 -6 111 -15 145 -22 14 -3 45 -7 70
-10 25 -3 46 -9 48 -14 2 -5 9 -7 16 -4 7 3 35 0 62 -7 27 -6 62 -13 79 -16
79 -13 233 -86 266 -126 27 -32 41 -93 34 -139 -17 -97 -151 -178 -337 -204
-45 -7 -73 -12 -73 -14 0 -3 -140 -9 -250 -10 -122 -1 -262 6 -306 16 -13 3
-38 7 -56 9 -72 9 -204 55 -231 82 -7 7 -18 13 -24 13 -17 0 -72 70 -88 113
-9 23 -15 67 -15 98 l0 56 -290 -1 -290 -1 2 -60 c3 -72 13 -167 18 -175 2 -4
7 -22 10 -40 24 -134 156 -320 282 -396 46 -28 162 -84 183 -89 8 -2 29 -9 45
-16 17 -6 35 -13 40 -14 6 -2 28 -7 50 -13 22 -6 52 -13 68 -16 15 -3 35 -7
45 -10 9 -3 40 -8 67 -11 28 -3 68 -8 90 -10 112 -14 169 -17 390 -18 276 -2
371 5 547 44 51 11 103 22 116 25 30 6 111 32 137 44 11 5 31 14 45 20 26 10
34 15 110 64 122 80 215 183 262 291 50 117 63 186 62 350 -1 171 -43 281
-154 408 -88 101 -272 211 -420 252 -8 2 -40 11 -70 20 -30 9 -66 18 -80 21
-14 3 -50 11 -80 19 -30 8 -66 16 -80 18 -14 3 -63 12 -110 20 -105 19 -141
25 -205 33 -27 3 -57 8 -65 10 -8 3 -35 8 -60 10 -25 3 -56 7 -70 10 -14 3
-38 7 -55 10 -160 26 -294 66 -368 107 -21 11 -66 56 -68 67 0 3 -3 14 -6 25
-15 58 15 137 57 150 11 4 20 11 20 16 0 5 7 9 15 9 8 0 15 5 15 10 0 6 3 9 8
8 4 -1 21 4 37 11 61 26 74 30 116 36 24 4 46 8 49 10 16 10 172 19 315 19
143 0 208 -5 255 -19 8 -2 26 -6 40 -9 82 -14 213 -80 256 -128 26 -29 45 -77
47 -120 2 -31 4 -33 40 -33 20 0 37 -3 37 -8 0 -4 8 -4 18 0 20 10 64 9 81 -1
6 -4 11 -4 11 1 0 10 93 9 109 -1 6 -4 11 -4 11 1 0 10 82 9 97 0 7 -4 14 -4
16 1 3 4 23 6 44 5 21 -2 48 -3 61 -3 56 1 54 -3 49 94 -3 50 -10 103 -16 119
-6 15 -9 27 -6 27 16 0 -77 183 -111 217 -7 7 -21 23 -31 36 -43 54 -236 177
-277 177 -9 0 -16 4 -16 8 0 10 -150 56 -250 76 -121 25 -208 35 -335 41 -44
2 -80 4 -80 5 0 1 -10 3 -22 4 -13 2 -23 0 -23 -4 0 -7 -43 -6 -57 3 -5 4 -13
4 -16 0z"/>
<path d="M9831 20110 c-4 -3 -7 -83 -7 -177 l1 -173 25 -1 c63 -2 636 -1 645
1 6 1 12 1 15 0 15 -5 200 -4 200 2 0 4 6 5 14 2 8 -3 47 -6 87 -7 l74 -2 1
-35 c0 -19 -3 -43 -8 -52 -4 -9 -5 -19 -1 -21 7 -4 9 -303 3 -317 -1 -3 -1 -9
0 -15 7 -26 4 -305 -3 -305 -5 0 -5 -6 0 -12 10 -17 11 -568 0 -575 -4 -2 -4
-10 0 -16 10 -16 10 -297 1 -304 -5 -2 -5 -9 -1 -16 10 -17 11 -190 0 -204 -5
-7 -5 -13 -1 -13 5 0 9 -63 9 -141 -1 -117 2 -142 15 -148 12 -6 298 -8 346
-2 7 1 10 317 10 1086 -1 1078 -1 1086 19 1090 11 2 46 3 78 2 31 -1 57 2 57
6 0 5 5 5 11 1 10 -6 331 -10 354 -4 6 1 15 1 20 0 27 -5 185 -1 196 5 7 5 10
4 7 -1 -4 -5 7 -9 23 -9 16 0 29 3 29 7 0 4 6 5 14 2 23 -9 186 -10 186 -1 0
4 7 4 16 -1 20 -11 54 -4 55 12 5 64 2 146 -4 146 -5 0 -5 5 -1 11 10 17 10
170 -1 177 -12 7 -2474 9 -2484 2z"/>
<path d="M28726 20091 c-3 -4 -7 -25 -9 -46 -3 -22 -10 -61 -16 -86 -6 -25
-13 -61 -15 -80 -3 -19 -8 -47 -11 -64 -3 -16 -7 -39 -9 -50 -8 -45 -19 -101
-23 -120 -5 -26 -12 -63 -16 -95 l-4 -25 -177 -1 c-97 -1 -180 -4 -184 -8 -3
-4 -7 -99 -7 -210 l0 -203 169 -1 c92 -1 171 -3 174 -6 3 -3 6 -248 8 -543 1
-296 4 -547 6 -558 2 -11 8 -42 12 -69 5 -27 20 -77 33 -110 55 -134 140 -209
288 -253 66 -19 180 -30 290 -28 72 1 130 4 130 5 0 1 20 4 45 6 67 8 95 12
95 14 0 1 9 3 20 5 42 8 105 28 106 34 4 30 3 351 -1 352 -3 0 -75 2 -160 3
-174 4 -202 8 -247 39 -32 22 -68 86 -79 142 -9 45 -10 956 -1 962 4 2 115 4
247 5 216 0 240 2 241 17 5 84 3 388 -3 396 -4 6 -96 10 -247 9 -133 -1 -241
1 -242 5 0 3 -1 132 -2 286 l-2 280 -203 2 c-111 0 -204 -2 -206 -6z"/>
<path d="M15858 19565 c-2 -1 -31 -5 -64 -8 -67 -7 -208 -39 -264 -61 -46 -19
-74 -28 -79 -26 -2 1 -7 -2 -10 -7 -3 -5 -19 -14 -35 -21 -54 -24 -136 -84
-196 -144 -124 -123 -192 -256 -236 -463 -20 -95 -26 -401 -11 -515 16 -111
73 -285 115 -350 9 -14 17 -27 17 -30 0 -3 19 -30 41 -60 51 -69 141 -151 202
-187 26 -15 50 -31 53 -36 3 -5 8 -8 10 -7 4 2 20 -4 84 -31 58 -24 172 -56
230 -64 22 -4 51 -9 65 -12 43 -10 353 -11 410 -2 30 5 72 11 94 14 122 19
294 86 392 153 172 117 273 268 299 447 3 22 8 45 10 52 8 23 -18 27 -176 27
l-158 1 -5 -30 c-14 -67 -58 -137 -134 -209 -34 -34 -123 -84 -201 -116 -68
-28 -89 -33 -181 -47 -84 -13 -282 -6 -330 11 -8 3 -28 7 -45 10 -55 9 -159
51 -207 84 -147 101 -227 253 -242 460 l-4 52 37 0 c20 1 399 1 843 1 587 0
809 3 814 11 19 30 2 351 -22 430 -3 9 -6 25 -8 35 -11 54 -77 213 -88 213 -5
0 -8 6 -8 14 0 15 -67 104 -109 146 -47 45 -129 110 -140 110 -6 0 -11 5 -11
11 0 5 -4 8 -9 4 -5 -3 -12 -1 -16 4 -9 16 -113 63 -170 77 -5 2 -35 10 -65
18 -30 9 -73 18 -95 21 -22 3 -56 8 -75 11 -37 5 -317 14 -322 9z m303 -306
c41 -7 77 -13 81 -13 3 -1 10 -4 14 -8 4 -5 14 -8 23 -8 44 0 196 -91 243
-145 70 -81 119 -202 121 -305 l2 -65 -670 0 -670 0 3 39 c2 22 6 49 9 60 8
37 11 51 13 54 2 1 3 5 4 10 4 18 41 107 46 112 3 3 16 21 27 40 30 48 99 112
161 149 29 17 52 28 52 25 0 -4 6 -2 13 4 20 16 147 52 207 59 30 3 56 6 57 8
9 6 202 -5 264 -16z"/>
<path d="M21418 19549 c-48 -9 -104 -23 -125 -29 -53 -17 -147 -62 -151 -72
-2 -4 -8 -8 -13 -8 -31 0 -166 -115 -226 -193 -25 -32 -50 -56 -56 -54 -13 4
-24 61 -33 162 -3 33 -6 76 -8 95 -7 80 8 75 -219 74 -112 0 -208 -3 -213 -6
-7 -5 -12 -1910 -5 -1938 0 -3 119 -5 264 -5 l263 0 0 534 c-1 511 1 560 28
663 15 55 85 157 144 208 44 38 140 93 153 87 3 -1 12 3 20 9 23 19 70 27 164
29 221 5 346 -80 394 -265 17 -70 19 -118 19 -662 0 -323 2 -591 5 -595 4 -6
502 -10 527 -4 3 0 4 244 4 542 -2 585 0 608 52 712 41 79 144 177 234 219 96
46 154 58 260 53 173 -7 276 -72 342 -217 9 -20 14 -39 11 -42 -3 -2 -1 -11 3
-18 14 -22 15 -48 18 -653 2 -324 4 -592 5 -595 2 -7 518 -6 526 1 7 7 8 1283
1 1341 -10 83 -18 123 -27 140 -5 9 -8 21 -7 25 5 19 -46 147 -81 201 -66 102
-181 197 -265 218 -14 3 -26 11 -26 17 0 6 -2 8 -5 5 -3 -2 -43 5 -90 17 -66
17 -115 23 -213 23 -335 1 -547 -94 -759 -342 -18 -21 -37 -34 -43 -31 -6 4
-22 30 -36 58 -32 68 -105 150 -176 198 -31 21 -61 39 -66 39 -4 0 -26 8 -48
19 -34 16 -139 45 -184 51 -81 10 -287 4 -362 -11z"/>
<path d="M25168 19565 c-2 -2 -39 -6 -83 -9 -44 -4 -87 -9 -95 -11 -8 -3 -37
-7 -63 -9 -26 -3 -52 -8 -57 -11 -4 -3 -21 -7 -37 -9 -56 -7 -109 -19 -140
-33 -18 -7 -33 -11 -33 -9 0 7 -117 -51 -175 -87 -56 -35 -157 -131 -148 -141
4 -3 1 -6 -5 -6 -29 0 -82 -163 -82 -252 0 -48 3 -58 18 -59 26 -1 451 -1 493
0 29 1 35 5 36 24 1 52 4 63 26 88 33 39 123 80 202 93 17 3 46 8 65 12 99 18
389 6 475 -20 151 -46 215 -127 223 -284 5 -82 4 -82 -19 -79 -13 2 -36 1 -51
-4 -16 -4 -28 -5 -28 -1 0 6 -54 8 -62 3 -2 -1 -91 -3 -198 -6 -196 -4 -300
-9 -420 -21 -96 -10 -115 -12 -115 -14 0 -1 -13 -3 -30 -5 -30 -3 -69 -10
-115 -20 -14 -3 -34 -8 -45 -10 -28 -7 -68 -16 -80 -19 -43 -10 -123 -41 -136
-52 -8 -8 -19 -14 -24 -14 -36 0 -225 -179 -225 -214 0 -2 -5 -17 -12 -33 -6
-15 -12 -31 -13 -35 -2 -5 -3 -9 -5 -10 -1 -2 -3 -10 -5 -18 -14 -54 -18 -98
-19 -195 0 -170 40 -275 144 -382 29 -29 132 -97 150 -98 3 -1 15 -6 28 -13
12 -7 22 -10 22 -6 0 3 6 2 13 -3 14 -11 94 -32 147 -39 19 -2 60 -8 90 -13
58 -9 338 -7 380 4 14 3 42 8 64 10 21 2 47 7 56 10 10 3 27 7 37 9 71 14 265
92 314 127 14 10 29 16 33 12 3 -3 6 -2 6 3 0 5 18 20 40 34 22 14 40 28 40
32 0 9 70 51 76 45 3 -3 7 -11 8 -19 11 -54 54 -134 93 -174 71 -73 185 -104
362 -100 64 2 127 6 141 10 14 3 48 11 75 17 28 7 64 18 81 25 l31 13 -1 177
-1 177 -107 0 c-118 -1 -136 6 -165 60 -15 28 -17 86 -18 522 -1 436 -3 498
-19 560 -35 135 -105 233 -225 314 -60 41 -121 74 -121 67 0 -3 -17 2 -37 11
-21 8 -51 17 -68 20 -16 2 -43 8 -60 13 -29 8 -106 21 -155 25 -14 1 -47 6
-75 10 -46 6 -391 15 -397 10z m619 -1200 c1 -33 -5 -85 -13 -115 -13 -46 -26
-65 -81 -118 -36 -34 -68 -60 -71 -57 -3 3 -12 -1 -21 -8 -17 -14 -171 -75
-206 -81 -11 -2 -38 -9 -60 -14 -96 -26 -313 -35 -414 -18 -136 23 -204 81
-203 174 2 114 97 191 295 238 4 1 8 2 10 4 8 6 111 22 172 26 33 1 60 4 60 4
0 4 64 9 175 15 63 4 116 7 117 8 1 1 55 2 120 2 l118 0 2 -60z"/>
<path d="M27785 19559 c-106 -19 -234 -88 -304 -164 -40 -43 -121 -164 -121
-181 0 -6 -6 -17 -14 -23 -25 -21 -30 -2 -51 221 -9 94 -10 99 -22 106 -9 6
-287 7 -400 3 l-22 -1 1 -970 c0 -533 3 -971 6 -971 18 -4 508 -5 518 -2 8 3
11 145 12 501 0 320 4 515 11 547 6 28 14 61 17 75 11 52 77 172 117 213 43
43 100 87 114 87 4 0 20 6 34 14 44 23 97 29 269 32 91 1 168 3 171 3 3 1 5
110 5 243 l-1 242 -60 13 c-70 16 -223 22 -280 12z"/>
<path d="M30896 19563 c-1 -1 -29 -5 -62 -7 -83 -7 -184 -22 -289 -45 -81 -17
-109 -26 -195 -59 -14 -5 -29 -10 -33 -10 -4 -1 -15 -8 -23 -17 -9 -8 -20 -13
-25 -10 -5 4 -9 2 -9 -3 0 -4 -17 -18 -37 -29 -93 -52 -200 -193 -217 -284 -3
-13 -5 -24 -6 -24 -9 0 -6 -136 2 -141 8 -5 435 -9 526 -5 7 1 12 16 12 41 0
22 5 40 10 40 6 0 10 7 10 14 0 8 15 26 33 40 48 37 127 63 247 82 54 8 321
13 334 6 5 -3 27 -7 48 -8 20 -2 46 -8 56 -13 11 -6 22 -8 25 -4 4 3 13 0 22
-7 8 -7 15 -10 15 -6 0 4 17 -2 39 -13 104 -53 150 -131 154 -259 l2 -77 -48
-1 c-26 -1 -54 -4 -62 -8 -8 -3 -15 -1 -15 5 0 6 -4 8 -9 5 -4 -3 -102 -8
-217 -11 -230 -6 -312 -10 -424 -21 -41 -4 -83 -7 -92 -8 -10 0 -18 -4 -18 -9
0 -4 -5 -5 -10 -2 -10 6 -38 2 -210 -34 -25 -5 -66 -17 -90 -26 -25 -9 -50
-17 -56 -18 -17 -4 -105 -50 -128 -67 -96 -72 -160 -152 -191 -240 -25 -68
-26 -76 -32 -200 -5 -110 -2 -135 31 -245 30 -100 124 -202 240 -259 142 -69
271 -92 511 -90 156 1 246 11 345 39 30 9 62 18 70 20 40 10 136 48 145 56 5
5 17 9 27 9 10 0 18 5 18 10 0 6 6 10 13 10 14 0 139 83 180 119 40 36 54 34
68 -7 50 -157 130 -222 305 -253 83 -14 284 -4 344 17 8 3 26 8 39 10 46 9 93
34 88 46 -2 7 0 21 5 31 5 11 5 17 -1 17 -7 0 -7 8 -2 23 5 13 6 30 1 37 -4 7
-4 24 0 39 4 14 4 34 1 45 -4 10 -6 32 -4 50 6 63 6 86 0 92 -3 4 -52 6 -108
6 -78 0 -109 4 -127 16 -50 33 -51 44 -53 567 -1 447 -3 494 -20 559 -23 84
-32 103 -81 177 -64 98 -202 192 -328 224 -3 1 -12 4 -20 8 -8 3 -46 11 -85
18 -38 6 -79 13 -90 16 -11 2 -40 6 -65 9 -25 2 -65 7 -90 10 -47 6 -389 12
-394 7z m635 -1153 c2 -37 -1 -127 -5 -148 -7 -31 -49 -103 -73 -122 -39 -33
-110 -78 -153 -98 -64 -29 -243 -81 -304 -88 -67 -9 -259 -9 -316 -2 -54 7
-148 43 -173 66 -65 58 -57 180 16 245 43 38 154 88 231 103 11 2 30 6 41 9
11 2 31 6 45 9 14 4 57 9 95 12 39 3 81 7 95 9 14 3 81 7 150 11 69 3 126 7
127 7 1 1 51 2 112 2 92 0 111 -2 112 -15z"/>
<path d="M33748 19565 c-1 -2 -23 -6 -48 -10 -82 -11 -96 -14 -157 -34 -175
-56 -305 -147 -437 -306 -32 -39 -43 -27 -51 50 -3 33 -8 76 -10 95 -3 19 -7
62 -10 94 -3 33 -7 61 -10 64 -4 4 -361 6 -415 3 -13 -1 -15 -115 -15 -973 l0
-973 263 0 c145 0 266 3 268 6 2 4 4 251 4 551 1 589 1 597 56 699 43 80 139
170 226 213 104 51 167 65 278 62 235 -6 361 -104 406 -316 4 -19 8 -298 10
-620 1 -322 2 -587 3 -590 0 -3 118 -5 261 -5 253 0 261 0 265 20 2 11 3 319
1 685 -3 702 -3 699 -52 851 -57 176 -171 302 -332 368 -60 25 -97 36 -197 57
-32 7 -301 15 -307 9z"/>
<path d="M9814 17078 c-3 -5 -11 -7 -18 -5 -9 4 -12 -290 -11 -1262 l0 -1266
183 -3 182 -2 1 22 c1 13 2 263 2 556 2 454 4 534 17 542 8 5 17 7 21 4 4 -2
392 -4 862 -4 l856 0 0 -538 c0 -295 0 -547 0 -559 1 -23 1 -23 186 -23 l185
0 1 28 c0 15 1 586 2 1268 l2 1242 -27 -2 c-16 -1 -28 1 -28 5 0 4 -17 3 -37
-1 -20 -5 -41 -6 -46 -3 -10 6 -70 6 -102 -1 -11 -2 -26 1 -32 7 -9 6 -13 6
-13 -1 0 -7 -10 -8 -27 -3 -51 13 -63 4 -64 -47 0 -26 -1 -265 -2 -532 l-2
-485 -875 0 -875 0 0 532 c0 410 -3 534 -12 537 -7 3 -15 2 -17 -3 -3 -4 -25
-5 -48 -2 -24 3 -61 4 -83 1 -22 -3 -47 -3 -56 1 -8 4 -21 4 -28 0 -7 -5 -30
-5 -52 -1 -22 4 -42 3 -45 -2z"/>
<path d="M13847 16534 c-1 -1 -42 -4 -92 -8 -110 -8 -137 -11 -223 -32 -37 -8
-74 -17 -82 -19 -8 -2 -32 -11 -52 -19 -21 -9 -40 -16 -43 -16 -8 0 -97 -51
-150 -86 -50 -32 -175 -154 -175 -170 0 -4 -9 -17 -19 -28 -44 -48 -115 -217
-135 -321 -22 -112 -27 -150 -31 -232 -1 -39 -6 -76 -9 -82 -4 -6 -4 -11 1
-11 4 0 9 -33 9 -73 3 -99 17 -219 31 -257 3 -8 8 -23 9 -33 13 -66 100 -250
139 -294 5 -6 28 -33 50 -60 48 -59 143 -134 222 -174 56 -29 176 -73 225 -83
99 -20 132 -25 198 -31 79 -7 284 -8 335 -1 31 4 102 16 120 21 137 31 328
108 370 148 7 7 23 19 35 27 67 45 176 183 221 280 79 168 104 302 103 550 -1
152 -6 203 -31 310 -8 36 -16 72 -18 80 -2 8 -4 16 -5 18 -2 1 -3 5 -5 10 -2
7 -19 52 -32 82 -3 8 -5 18 -5 23 1 4 -1 7 -6 7 -4 0 -14 15 -21 33 -8 17 -20
37 -25 43 -6 6 -18 22 -26 34 -65 96 -170 186 -281 241 -64 32 -214 84 -270
93 -19 3 -45 8 -59 11 -48 10 -265 25 -273 19z m72 -298 c51 2 116 -8 220 -31
38 -9 171 -75 171 -85 0 -6 6 -10 14 -10 17 0 126 -118 126 -136 0 -8 3 -14 8
-14 19 0 79 -174 89 -260 13 -104 6 -400 -9 -426 -3 -5 -9 -25 -13 -44 -21
-95 -99 -228 -167 -284 -18 -15 -41 -34 -50 -41 -34 -28 -149 -77 -208 -90 -8
-2 -15 -4 -15 -5 0 -14 -325 -19 -385 -7 -243 52 -398 182 -469 393 -11 33
-22 76 -24 95 -2 19 -6 39 -9 44 -8 13 -3 363 6 395 3 14 8 34 10 45 21 103
78 208 156 285 71 72 129 106 235 140 87 27 94 28 175 36 35 3 67 8 70 10 2 3
6 2 7 -3 2 -4 30 -7 62 -7z"/>
<path d="M18240 16509 c-150 -26 -158 -28 -229 -56 -171 -68 -263 -151 -317
-283 -14 -35 -26 -76 -26 -92 -1 -16 -4 -30 -7 -32 -7 -5 -5 -131 3 -166 3
-14 8 -36 11 -50 2 -13 17 -49 31 -80 69 -144 254 -247 565 -315 41 -8 81 -17
89 -19 8 -2 35 -7 60 -10 25 -3 54 -8 65 -10 11 -2 40 -7 65 -11 25 -4 54 -9
65 -11 33 -7 89 -16 110 -18 11 -2 30 -6 43 -10 12 -4 37 -9 55 -11 48 -4 179
-67 211 -101 77 -82 81 -233 8 -315 -81 -91 -264 -142 -512 -142 -392 -2 -600
110 -600 321 l0 49 -169 0 c-115 0 -171 -3 -174 -11 -9 -25 1 -154 16 -204 31
-104 87 -178 201 -270 51 -41 268 -121 371 -136 22 -3 50 -8 63 -10 38 -8 222
-19 307 -18 345 3 592 74 735 211 43 42 117 162 129 211 32 135 33 292 2 373
-6 15 -8 27 -6 27 5 0 -24 53 -53 98 -22 35 -68 81 -111 112 -35 24 -171 92
-171 85 0 -2 -15 2 -34 10 -18 8 -47 17 -62 20 -16 2 -40 7 -54 11 -14 3 -38
7 -55 10 -16 2 -39 7 -50 11 -11 3 -29 7 -40 8 -11 2 -65 11 -120 20 -55 10
-109 19 -120 20 -21 3 -64 11 -105 20 -14 3 -38 7 -55 10 -16 2 -41 7 -55 10
-14 3 -34 8 -45 9 -78 13 -189 66 -231 112 -53 58 -62 150 -20 220 25 41 130
97 226 119 101 24 375 29 485 9 44 -7 107 -27 141 -44 56 -27 133 -96 138
-123 2 -7 6 -23 10 -37 6 -21 12 -61 15 -92 1 -5 77 -8 170 -8 193 0 181 -7
169 95 -9 82 -13 95 -43 159 -30 64 -109 155 -163 188 -20 12 -39 25 -42 28
-8 11 -178 81 -208 86 -15 3 -35 7 -44 10 -10 3 -30 7 -45 10 -16 3 -39 8 -53
11 -14 3 -117 7 -230 8 -160 2 -228 -2 -310 -16z"/>
<path d="M20639 16526 c-2 -2 -22 -6 -44 -9 -85 -10 -229 -53 -335 -100 -32
-14 -128 -76 -159 -102 -37 -31 -107 -107 -135 -145 -46 -64 -118 -213 -132
-272 -2 -10 -6 -27 -9 -38 -10 -38 -13 -55 -20 -110 -4 -30 -10 -66 -12 -80
-8 -55 -4 -299 7 -365 19 -120 20 -127 40 -186 11 -32 20 -65 20 -72 0 -8 7
-20 15 -27 9 -7 13 -15 10 -18 -7 -7 37 -83 88 -152 59 -80 177 -190 205 -190
6 0 12 -4 12 -9 0 -12 157 -81 220 -96 8 -2 30 -8 48 -14 18 -5 35 -10 37 -10
3 -1 6 -1 8 -2 43 -13 209 -31 297 -32 90 0 278 11 290 18 3 2 21 6 40 9 217
36 420 142 538 281 28 34 52 67 52 74 0 6 4 11 9 11 7 0 35 54 46 90 1 3 5 12
8 20 16 37 34 108 33 133 -1 15 1 27 5 27 4 0 5 9 2 20 -5 18 -14 19 -171 17
l-165 -2 -4 -25 c-10 -68 -80 -169 -162 -233 -63 -50 -205 -112 -301 -133 -44
-9 -303 -11 -350 -2 -96 17 -215 58 -262 90 -14 10 -29 18 -32 18 -14 0 -81
68 -122 123 -41 55 -77 133 -89 194 -11 55 -21 129 -20 158 l0 30 842 0 c463
1 845 4 848 7 7 6 7 233 1 298 -9 88 -29 178 -57 250 -9 25 -23 61 -31 80 -7
19 -16 40 -21 45 -4 6 -26 38 -48 71 -39 60 -123 146 -186 191 -44 32 -181 99
-228 113 -84 24 -141 38 -180 45 -44 8 -439 18 -446 11z m276 -291 c78 -8 129
-16 136 -21 3 -2 21 -6 40 -9 65 -11 198 -85 252 -140 85 -85 137 -206 142
-330 2 -46 0 -50 -24 -56 -14 -3 -36 -2 -48 2 -13 5 -25 4 -28 -2 -4 -5 -10
-7 -15 -4 -13 8 -128 10 -136 3 -3 -3 -18 -2 -34 2 -16 4 -31 6 -34 3 -5 -6
-99 -7 -121 -3 -5 1 -14 1 -20 0 -5 -1 -53 -1 -105 0 -87 1 -139 1 -172 -1 -7
0 -22 0 -33 1 -11 0 -45 0 -76 -1 -31 -1 -60 1 -66 4 -5 3 -15 2 -22 -3 -8 -4
-27 -4 -42 0 -17 5 -29 5 -29 0 0 -6 -10 -6 -25 0 -15 6 -26 6 -30 -1 -4 -5
-11 -7 -16 -4 -12 8 -127 10 -134 3 -4 -3 -22 -2 -41 2 -19 4 -36 4 -39 0 -2
-4 -15 -5 -29 -3 -21 4 -23 9 -19 41 17 141 72 260 161 348 53 53 128 103 141
95 2 -2 7 1 10 6 10 14 102 45 171 58 14 3 65 7 114 10 48 2 91 6 94 9 2 3 8
4 11 2 3 -2 33 -7 66 -11z"/>
<path d="M15348 16477 c-5 -17 0 -1324 6 -1372 14 -127 46 -237 92 -320 59
-103 193 -204 329 -246 44 -14 42 -14 100 -24 80 -13 102 -15 185 -16 77 -2
107 1 220 16 210 28 436 164 551 332 32 46 55 48 56 5 0 -15 4 -65 8 -112 8
-98 12 -157 14 -182 1 -16 14 -18 134 -18 l134 0 0 974 0 974 -167 0 -167 0 0
-567 c0 -550 -4 -630 -33 -706 -6 -16 -12 -32 -12 -35 -1 -14 -55 -99 -80
-124 -15 -17 -28 -33 -28 -37 0 -14 -140 -118 -175 -130 -19 -7 -35 -17 -35
-22 0 -5 -7 -7 -15 -4 -8 4 -17 2 -20 -3 -7 -12 -82 -34 -150 -45 -38 -6 -212
-6 -245 0 -14 3 -43 7 -65 11 -22 3 -44 10 -50 14 -5 4 -21 11 -34 15 -86 26
-169 132 -197 252 -17 71 -19 135 -20 728 l-1 650 -166 2 c-119 1 -166 -2
-169 -10z"/>
</g>
</svg>
