<svg xmlns="http://www.w3.org/2000/svg" width="180" height="181" fill="none"><path fill="#E2A42C" d="M134.683 135.228c24.794-24.766 24.794-64.92 0-89.687-24.795-24.766-64.994-24.766-89.789 0-24.794 24.767-24.794 64.921 0 89.687 24.795 24.766 64.994 24.766 89.789 0Z"/><path fill="#ECB540" d="M98.32 144.351c29.827-4.724 50.172-32.706 45.443-62.498-4.73-29.793-32.742-50.115-62.569-45.39-29.826 4.723-50.171 32.705-45.442 62.497 4.73 29.793 32.742 50.115 62.569 45.391Z"/><path stroke="#4E4E4E" stroke-linecap="round" stroke-linejoin="round" stroke-width="3.84" d="M57.676 62.144c1.45-7.661 12-12.456 19.27-12.396M100.336 49.748c7.28-1.248 17.83 4.725 19.27 12.396"/><path fill="#E69837" d="M48.126 96.186c5.462 0 9.89-3.3 9.89-7.372 0-4.071-4.428-7.372-9.89-7.372-5.462 0-9.89 3.3-9.89 7.372 0 4.071 4.428 7.372 9.89 7.372ZM131.446 96.186c5.462 0 9.89-3.3 9.89-7.372 0-4.071-4.428-7.372-9.89-7.372-5.462 0-9.89 3.3-9.89 7.372 0 4.071 4.428 7.372 9.89 7.372Z"/><path fill="#DF654D" fill-rule="evenodd" d="M108.746 96.475c-4.09-3.246-14.3-10.458-14.3-18.948 0-3.986 3.42-7.142 7.41-7.142s6.89 3.885 6.89 5.484c0-1.609 2.9-5.484 6.89-5.484 3.99 0 7.41 3.156 7.41 7.142 0 8.49-10.21 15.702-14.3 18.948ZM70.826 96.475c-4.09-3.246-14.3-10.458-14.3-18.948 0-3.986 3.42-7.142 7.41-7.142s6.89 3.885 6.89 5.484c0-1.609 2.9-5.484 6.89-5.484 3.99 0 7.41 3.156 7.41 7.142 0 8.49-10.21 15.702-14.3 18.948Z" clip-rule="evenodd"/><path stroke="#4E4E4E" stroke-linecap="round" stroke-linejoin="round" stroke-width="3.84" d="M52.246 99.482c20.17 19.458 55.94 21.026 75.09 0"/><path stroke="#4E4E4E" stroke-linecap="round" stroke-linejoin="round" stroke-width="3.84" d="M123.436 96.685c4.33 1.32 6.39 3.58 6.42 7.35M55.466 96.685c-4.33 1.32-6.39 3.58-6.42 7.35"/></svg>