<svg xmlns="http://www.w3.org/2000/svg" width="155" height="156" viewBox="0 0 155 156" fill="none">
  <path d="M77.3289 141.346C112.393 141.346 140.819 112.953 140.819 77.928C140.819 42.9032 112.393 14.5099 77.3289 14.5099C42.2643 14.5099 13.8389 42.9032 13.8389 77.928C13.8389 112.953 42.2643 141.346 77.3289 141.346Z" fill="#E2A42C"/>
  <path d="M115.994 116.547C137.348 95.2173 137.348 60.635 115.994 39.3053C94.6399 17.9756 60.0185 17.9756 38.6646 39.3053C17.3107 60.635 17.3107 95.2173 38.6646 116.547C60.0185 137.877 94.64 137.877 115.994 116.547Z" fill="#ECB540"/>
  <path fill-rule="evenodd" clip-rule="evenodd" d="M57.769 82.293C60.289 82.293 62.349 77.2787 62.349 71.1257C62.349 64.9727 60.289 59.9484 57.769 59.9484C55.249 59.9484 53.189 64.9627 53.189 71.1257C53.189 77.2887 55.249 82.293 57.769 82.293Z" fill="#4E4E4E"/>
  <path fill-rule="evenodd" clip-rule="evenodd" d="M98.4989 82.293C101.019 82.293 103.079 77.2787 103.079 71.1257C103.079 64.9727 101.019 59.9484 98.4989 59.9484C95.9789 59.9484 93.9189 64.9627 93.9189 71.1257C93.9189 77.2887 95.9789 82.293 98.4989 82.293Z" fill="#4E4E4E"/>
  <path d="M46.6389 42.7479C55.6989 38.4328 64.1989 45.7845 68.8989 51.0185" stroke="#4E4E4E" stroke-width="3.84" stroke-linecap="round" stroke-linejoin="round"/>
  <path d="M88.7991 60.1582C92.3991 54.9441 103.089 48.2317 109.599 52.2671" stroke="#4E4E4E" stroke-width="3.84" stroke-linecap="round" stroke-linejoin="round"/>
  <path d="M71.3291 110.301C90.6791 114.047 112.879 102.151 117.169 85.4794" stroke="#4E4E4E" stroke-width="3.84" stroke-linecap="round" stroke-linejoin="round"/>
  <path d="M42.7889 94.2994C48.251 94.2994 52.6789 90.999 52.6789 86.9278C52.6789 82.8565 48.251 79.5562 42.7889 79.5562C37.3268 79.5562 32.8989 82.8565 32.8989 86.9278C32.8989 90.999 37.3268 94.2994 42.7889 94.2994Z" fill="#E69837"/>
  <path d="M117.069 80.9246C122.531 80.9246 126.959 77.6242 126.959 73.553C126.959 69.4817 122.531 66.1813 117.069 66.1813C111.607 66.1813 107.179 69.4817 107.179 73.553C107.179 77.6242 111.607 80.9246 117.069 80.9246Z" fill="#E69837"/>
  <path d="M112.039 84.6607C116.489 83.8307 119.359 84.8806 121.129 88.2106" stroke="#4E4E4E" stroke-width="3.84" stroke-linecap="round" stroke-linejoin="round"/>
</svg>