<svg xmlns="http://www.w3.org/2000/svg" width="180" height="181" viewBox="0 0 180 181" fill="none">
  <path d="M134.683 135.229C159.477 110.463 159.477 70.3087 134.683 45.5424C109.888 20.776 69.6886 20.7761 44.8942 45.5424C20.0998 70.3087 20.0998 110.463 44.8942 135.229C69.6886 159.995 109.888 159.995 134.683 135.229Z" fill="#E2A42C"/>
  <path d="M98.5289 144.306C128.341 139.493 148.603 111.452 143.785 81.6736C138.967 51.8953 110.894 31.6563 81.082 36.4687C51.2698 41.2811 31.0079 69.3225 35.8258 99.1008C40.6436 128.879 68.7167 149.118 98.5289 144.306Z" fill="#ECB540"/>
  <path fill-rule="evenodd" clip-rule="evenodd" d="M69.4538 94.6848C71.9738 94.6848 74.0338 89.6705 74.0338 83.5075C74.0338 77.3445 71.9738 72.3401 69.4538 72.3401C66.9338 72.3401 64.8738 77.3545 64.8738 83.5075C64.8738 89.6605 66.9338 94.6848 69.4538 94.6848Z" fill="#4E4E4E"/>
  <path fill-rule="evenodd" clip-rule="evenodd" d="M110.184 94.6848C112.704 94.6848 114.764 89.6705 114.764 83.5075C114.764 77.3445 112.704 72.3401 110.184 72.3401C107.664 72.3401 105.604 77.3545 105.604 83.5075C105.604 89.6605 107.664 94.6848 110.184 94.6848Z" fill="#4E4E4E"/>
  <path d="M59.2139 66.2255C62.3939 59.9555 74.8239 56.6255 80.7139 60.4655" stroke="#4E4E4E" stroke-width="3.84" stroke-linecap="round" stroke-linejoin="round"/>
  <path d="M98.9238 60.4655C104.814 56.6255 117.244 59.9555 120.424 66.2255" stroke="#4E4E4E" stroke-width="3.84" stroke-linecap="round" stroke-linejoin="round"/>
  <path d="M59.7239 115.631C75.8739 130.834 104.514 132.062 119.854 115.631" stroke="#4E4E4E" stroke-width="3.84" stroke-linecap="round" stroke-linejoin="round"/>
  <path d="M54.4139 106.881C59.876 106.881 64.3039 103.581 64.3039 99.5093C64.3039 95.438 59.876 92.1376 54.4139 92.1376C48.9518 92.1376 44.5239 95.438 44.5239 99.5093C44.5239 103.581 48.9518 106.881 54.4139 106.881Z" fill="#E69837"/>
  <path d="M123.504 106.881C128.966 106.881 133.394 103.581 133.394 99.5093C133.394 95.438 128.966 92.1376 123.504 92.1376C118.042 92.1376 113.614 95.438 113.614 99.5093C113.614 103.581 118.042 106.881 123.504 106.881Z" fill="#E69837"/>
  <path fill-rule="evenodd" clip-rule="evenodd" d="M139.964 83.6273C138.104 94.5749 128.764 103.005 117.304 103.005C106.584 103.005 97.5338 95.6636 95.0538 85.7249V85.675C94.5838 83.857 94.0838 82.5186 93.3038 81.6895C91.6938 79.9715 87.8538 79.9715 86.2438 81.6895C85.4638 82.5186 84.9638 83.857 84.5138 85.675C84.4738 85.8348 84.4138 85.9746 84.3238 86.1045C81.5738 95.8235 72.8038 102.995 62.2138 102.995C50.7638 102.995 41.2238 94.6148 39.5538 83.6472C37.5038 70.1925 51.2338 70.622 60.4138 70.622C67.1838 70.622 83.6338 70.7119 85.0138 78.9226C87.6938 76.9648 91.9038 76.9749 94.5738 78.9526C96.0438 70.8118 110.224 70.612 116.934 70.612C126.224 70.612 142.274 69.9528 139.964 83.6173V83.6273Z" fill="#4E4E4E"/>
</svg>