<svg width="217" height="53" viewBox="0 0 217 53" fill="none" xmlns="http://www.w3.org/2000/svg">
<g id="Layer 2">
<path id="Vector" d="M34.9094 36.4302H31.0032V44.4057H34.9094V36.4302Z" fill="#071D21"/>
<path id="Vector_2" d="M27.1312 10.5551C31.569 10.5635 35.9627 9.60602 40.0499 7.73977C41.3569 7.1429 42.6273 6.45677 43.8534 5.68554L41.4828 1.25195C37.1314 4.00814 32.1764 5.45808 27.1312 5.45155C22.1836 5.45779 17.3209 4.06327 13.0283 1.40713L10.6577 5.84072C11.8067 6.54997 12.9938 7.18493 14.2125 7.74223C18.2999 9.60763 22.6936 10.5643 27.1312 10.5551Z" fill="#EE2B7B"/>
<path id="Vector_3" d="M14.3904 18.6514C16.6171 14.5063 18.0458 9.91873 18.5909 5.1634C18.7661 3.64371 18.8507 2.11343 18.8441 0.582031H14.1029C14.1379 6.02857 12.8232 11.3861 10.2948 16.0996C7.82633 20.7282 4.27668 24.5771 0 27.2624L2.37063 31.696C3.51366 30.9765 4.61611 30.1845 5.67218 29.324C9.21418 26.4363 12.1795 22.8062 14.3904 18.6514Z" fill="#92278F"/>
<path id="Vector_4" d="M39.995 34.6099C42.9274 29.1136 47.1617 24.5586 52.2635 21.4126L54.6364 25.8462C50.2952 28.5147 46.6824 32.3716 44.1624 37.0281C41.6423 41.6846 40.3041 46.976 40.2825 52.3689H35.5413C35.5481 50.9402 35.6334 49.5132 35.7968 48.0954C36.3411 43.341 37.769 38.7542 39.995 34.6099Z" fill="#F8971D"/>
<path id="Vector_5" d="M14.3904 34.2997C16.6168 38.4449 18.0455 43.0324 18.5909 47.7877C18.7661 49.3074 18.8507 50.8376 18.8441 52.369H14.1029C14.1379 46.9225 12.8232 41.5649 10.2948 36.8515C7.82764 32.2224 4.27764 28.374 0 25.6912L2.37063 21.2576C3.51366 21.977 4.61611 22.7691 5.67218 23.6295C9.21343 26.5171 12.1786 30.1462 14.3904 34.2997Z" fill="#DC4E26"/>
<path id="Vector_6" d="M39.995 18.341C42.2077 22.4945 45.1736 26.1236 48.7155 29.0112C49.8473 29.9348 51.0323 30.7797 52.2635 31.5408L54.6364 27.1072C50.2486 24.4191 46.6073 20.512 44.0906 15.7917C41.6109 11.1686 40.2979 5.92419 40.2825 0.582031L35.5413 0.582031C35.548 2.01073 35.6333 3.43774 35.7968 4.85552C36.3411 9.60992 37.769 14.1967 39.995 18.341Z" fill="#1E9C73"/>
<path id="Vector_7" d="M44.1065 48.2456L44.0974 51.4871L39.3151 51.4698L26.8413 43.0485L14.3173 51.3836L9.85669 51.3688L9.86582 47.9131L26.8595 36.6025L29.9626 38.6986L44.1065 48.2456Z" fill="#071D21"/>
<path id="Vector_8" d="M68.0252 25.2132V11.5676H61.397V9.35083H77.008V11.5676H70.357V25.2132H68.0252Z" fill="#231F20"/>
<path id="Vector_9" d="M79.2532 25.2132V8.49854H81.3477V14.9149H81.4755C81.8545 14.378 82.3313 13.9304 82.8764 13.5996C83.3765 13.3003 83.9147 13.0821 84.4736 12.9518C84.9989 12.8324 85.534 12.7705 86.0707 12.7671C86.9418 12.7415 87.8085 12.9092 88.6171 13.2597C89.2766 13.561 89.8225 14.0939 90.1663 14.7721C90.5162 15.4568 90.6911 16.3534 90.6911 17.4618V25.2132H88.5965V17.8706C88.6165 17.3213 88.5391 16.7728 88.3684 16.2548C88.2359 15.8738 88.0056 15.5414 87.7044 15.2967C87.4045 15.0662 87.0621 14.9082 86.7005 14.8336C86.2848 14.7467 85.8621 14.7047 85.4387 14.708C84.7588 14.707 84.0872 14.8685 83.4719 15.1809C82.8686 15.4747 82.3431 15.9269 81.9432 16.4962C81.5462 17.0726 81.339 17.7757 81.3546 18.4938V25.2132H79.2532Z" fill="#231F20"/>
<path id="Vector_10" d="M99.9727 25.4867C98.7663 25.5221 97.5659 25.2907 96.4453 24.8069C95.5095 24.3852 94.7252 23.6482 94.2093 22.7058C93.6891 21.76 93.429 20.5711 93.429 19.1393C93.429 17.7074 93.6822 16.53 94.1887 15.6072C94.6991 14.6639 95.4742 13.9203 96.4019 13.484C97.5099 12.9766 98.7058 12.7322 99.9088 12.7672C101.349 12.7672 102.54 13.0135 103.48 13.5061C104.357 13.9374 105.089 14.6517 105.574 15.5505C106.046 16.4881 106.282 17.5429 106.259 18.6097V19.7403H95.6536C95.6299 20.5535 95.8386 21.355 96.2514 22.0359C96.6392 22.616 97.1846 23.0516 97.812 23.2822C98.5421 23.549 99.3093 23.6782 100.08 23.664C100.597 23.6691 101.111 23.5953 101.609 23.4448C102.041 23.3137 102.455 23.1198 102.838 22.8684C103.168 22.6547 103.458 22.3765 103.694 22.0482C103.893 21.7749 104.019 21.4476 104.057 21.1024H106.151C106.132 21.6494 106.001 22.1851 105.768 22.6713C105.498 23.2294 105.114 23.7143 104.646 24.0901C104.067 24.5532 103.414 24.898 102.72 25.1074C101.826 25.3775 100.901 25.5053 99.9727 25.4867ZM95.6536 18.0974H104.057C104.075 17.5216 103.957 16.9504 103.715 16.4372C103.495 15.9981 103.175 15.6273 102.784 15.3609C102.37 15.0822 101.914 14.883 101.438 14.7722C100.921 14.6479 100.394 14.586 99.8655 14.5874C99.1556 14.5767 98.4495 14.7018 97.7801 14.9569C97.1885 15.1782 96.6692 15.5804 96.2856 16.1146C95.8995 16.6953 95.6798 17.3856 95.6536 18.0998V18.0974Z" fill="#231F20"/>
<path id="Vector_11" d="M116.887 25.4867C115.811 25.493 114.736 25.4197 113.669 25.2675C112.763 25.1487 111.879 24.8812 111.048 24.4743C110.333 24.1294 109.724 23.5725 109.291 22.8684C108.852 22.0789 108.636 21.1679 108.67 20.2477V20.1319C108.669 20.0919 108.677 20.0521 108.693 20.0161H112.305C112.291 20.0848 112.284 20.1551 112.284 20.2255V20.4718C112.279 20.6951 112.325 20.9162 112.418 21.1156C112.512 21.315 112.649 21.4865 112.818 21.6147C113.282 21.9518 113.81 22.1715 114.363 22.2576C115.14 22.3969 115.928 22.462 116.715 22.4521C117.101 22.4521 117.489 22.4374 117.881 22.4078C118.274 22.3782 118.65 22.3265 119.022 22.2576C119.356 22.1984 119.682 22.101 119.996 21.9669C120.254 21.8655 120.488 21.7041 120.681 21.494C120.763 21.4024 120.827 21.2939 120.869 21.175C120.912 21.0561 120.931 20.9292 120.927 20.8019C120.926 20.6184 120.879 20.4387 120.791 20.282C120.702 20.1254 120.576 19.9977 120.425 19.9127C120.006 19.6558 119.552 19.4729 119.079 19.3708C118.516 19.2329 117.881 19.1245 117.176 19.0136C116.471 18.9028 115.739 18.7969 114.984 18.6664C114.243 18.5393 113.511 18.3616 112.791 18.1343C112.125 17.9302 111.485 17.6356 110.888 17.2575C110.341 16.9139 109.879 16.4321 109.542 15.8535C109.191 15.2207 109.017 14.492 109.04 13.7549C109.026 13.0353 109.212 12.3276 109.574 11.7229C109.967 11.1014 110.496 10.5939 111.114 10.245C111.874 9.81149 112.692 9.51134 113.539 9.35582C114.594 9.15403 115.663 9.05756 116.734 9.06764C117.806 9.05369 118.876 9.15851 119.928 9.38045C120.747 9.54593 121.537 9.8493 122.269 10.2795C122.855 10.6224 123.349 11.1241 123.702 11.7352C124.027 12.3318 124.193 13.0136 124.183 13.7057V14.0505H120.585V13.8042C120.58 13.6275 120.536 13.4546 120.457 13.2999C120.377 13.1453 120.265 13.0133 120.129 12.915C119.741 12.6231 119.305 12.4156 118.844 12.3042C118.218 12.1409 117.576 12.0631 116.932 12.0726C116.151 12.0573 115.37 12.1233 114.6 12.2697C114.129 12.347 113.678 12.5281 113.275 12.8017C113.153 12.8773 113.05 12.9844 112.975 13.1133C112.901 13.2422 112.857 13.389 112.848 13.5406C112.852 13.7129 112.901 13.8805 112.99 14.0237C113.079 14.1668 113.204 14.2795 113.35 14.3485C113.774 14.5841 114.227 14.7501 114.696 14.8412C115.259 14.9643 115.893 15.076 116.599 15.1761C117.306 15.2747 118.036 15.3953 118.792 15.5333C119.53 15.6669 120.262 15.8404 120.984 16.053C121.653 16.2433 122.294 16.5344 122.887 16.9175C123.425 17.2616 123.885 17.7312 124.233 18.292C124.585 18.9035 124.76 19.6145 124.735 20.3339C124.735 21.5802 124.401 22.5843 123.731 23.3462C122.969 24.1646 122.009 24.7363 120.962 24.9965C119.629 25.3502 118.259 25.515 116.887 25.4867Z" fill="#231F20"/>
<path id="Vector_12" d="M127.28 25.2134V13.0456H129.974L130.202 15.0999H130.394C130.763 14.5475 131.228 14.0774 131.763 13.7156C132.263 13.3742 132.812 13.1245 133.388 12.9767C133.944 12.8316 134.515 12.7572 135.087 12.755C135.997 12.7226 136.901 12.9164 137.729 13.3215C138.424 13.6862 138.968 14.3153 139.258 15.0875H139.473C139.84 14.5333 140.305 14.0628 140.842 13.7033C141.346 13.363 141.899 13.1134 142.478 12.9644C143.042 12.8183 143.62 12.7439 144.2 12.7427C145.079 12.7137 145.953 12.8998 146.756 13.287C147.431 13.6314 147.977 14.2134 148.305 14.9373C148.674 15.813 148.849 16.7691 148.818 17.7305V25.2134H145.476V18.3315C145.484 17.9124 145.422 17.4953 145.293 17.0999C145.188 16.7789 145.013 16.4899 144.782 16.2575C144.555 16.0373 144.284 15.8756 143.99 15.7846C143.653 15.6796 143.303 15.6289 142.952 15.6344C142.397 15.6285 141.85 15.7671 141.355 16.0383C140.878 16.2951 140.466 16.6749 140.157 17.1442C139.848 17.6296 139.688 18.208 139.701 18.797V25.2134H136.367V18.3315C136.375 17.9134 136.317 17.497 136.196 17.0999C136.097 16.7776 135.923 16.4877 135.692 16.2575C135.466 16.0369 135.196 15.8751 134.903 15.7846C134.558 15.6788 134.202 15.6282 133.844 15.6344C133.289 15.6282 132.741 15.7668 132.247 16.0383C131.77 16.2926 131.361 16.6731 131.058 17.1442C130.751 17.6309 130.592 18.2084 130.602 18.797V25.2134H127.28Z" fill="#231F20"/>
<path id="Vector_13" d="M155.996 25.4865C155.359 25.4912 154.722 25.4335 154.094 25.3141C153.554 25.2153 153.034 25.0205 152.553 24.7378C152.123 24.4796 151.765 24.1009 151.518 23.6417C151.25 23.1027 151.121 22.4964 151.143 21.8855C151.143 20.9183 151.393 20.1531 151.892 19.5899C152.473 18.9788 153.204 18.5585 153.998 18.378C155.046 18.1098 156.116 17.9515 157.192 17.9051C158.409 17.8361 159.738 17.8017 161.18 17.8017V17.3632C161.203 16.9312 161.082 16.5048 160.838 16.1612C160.561 15.8396 160.2 15.6178 159.802 15.5257C159.21 15.3808 158.603 15.3155 157.995 15.3312C157.483 15.3274 156.972 15.3694 156.466 15.4568C156.08 15.5144 155.706 15.6479 155.364 15.8509C155.246 15.9133 155.145 16.0097 155.073 16.1296C155.002 16.2494 154.962 16.3881 154.958 16.5307V16.7622H151.593C151.577 16.7006 151.568 16.644 151.559 16.5898C151.555 16.5242 151.555 16.4584 151.559 16.3928C151.557 16.0372 151.623 15.6851 151.752 15.3579C151.88 15.0306 152.069 14.7349 152.307 14.4888C152.804 13.942 153.549 13.5183 154.541 13.2178C156.889 12.6366 159.326 12.6173 161.682 13.1612C162.497 13.3481 163.24 13.7993 163.811 14.4543C164.295 15.0536 164.537 15.8533 164.539 16.8534V21.9544C164.527 22.1871 164.583 22.4179 164.699 22.6146C164.764 22.7008 164.848 22.7684 164.943 22.8114C165.038 22.8543 165.141 22.8713 165.244 22.8609H166.355V25.0777C166.076 25.1884 165.79 25.2773 165.5 25.3437C165.064 25.4464 164.619 25.496 164.174 25.4915C163.648 25.5124 163.123 25.429 162.625 25.2451C162.292 25.1209 162.003 24.8865 161.801 24.5752C161.629 24.2899 161.506 23.9737 161.438 23.6417H161.267C160.839 24.0427 160.36 24.3745 159.843 24.6269C159.273 24.9111 158.674 25.1235 158.059 25.2599C157.381 25.4138 156.689 25.4897 155.996 25.4865ZM156.873 22.9249C157.322 22.92 157.769 22.8696 158.21 22.7747C158.695 22.6773 159.171 22.5305 159.631 22.3362C160.042 22.1745 160.421 21.9276 160.745 21.6096C160.881 21.4754 160.99 21.3113 161.064 21.1283C161.137 20.9453 161.174 20.7475 161.171 20.548V19.9002C159.915 19.8861 158.659 19.9478 157.409 20.0849C156.65 20.1469 155.905 20.3425 155.205 20.6638C154.721 20.9249 154.479 21.2943 154.479 21.7722C154.47 21.9182 154.498 22.0641 154.56 22.1943C154.622 22.3245 154.715 22.434 154.831 22.5111C155.11 22.689 155.421 22.803 155.743 22.8461C156.117 22.9033 156.495 22.9297 156.873 22.9249Z" fill="#231F20"/>
<path id="Vector_14" d="M167.822 25.2132V13.0455H170.517L170.745 15.1465H170.916C171.103 14.6988 171.359 14.2889 171.674 13.9347C171.997 13.5702 172.385 13.2795 172.815 13.08C173.29 12.8643 173.802 12.7577 174.318 12.7672C174.575 12.7673 174.832 12.787 175.087 12.8263C175.326 12.8607 175.562 12.9184 175.792 12.9987V16.0234H174.147C173.677 16.0105 173.209 16.1088 172.778 16.3116C172.42 16.4903 172.106 16.7599 171.865 17.0973C171.63 17.4292 171.453 17.8049 171.343 18.2057C171.228 18.6212 171.17 19.0528 171.172 19.4865V25.2132H167.822Z" fill="#231F20"/>
<path id="Vector_15" d="M182.575 25.4867C181.845 25.5117 181.116 25.3906 180.426 25.1296C179.878 24.9073 179.431 24.4664 179.176 23.898C178.905 23.3217 178.769 22.5335 178.769 21.5335V15.6762H176.6V13.0456H178.881L179.538 9.44946H182.105V13.0456H185.206V15.6762H182.105V21.0778C182.075 21.5447 182.184 22.0098 182.416 22.4054C182.621 22.7059 183.068 22.8561 183.753 22.8561H185.206V25.0951C184.951 25.186 184.69 25.2552 184.426 25.302C184.104 25.3636 183.778 25.4104 183.442 25.4424C183.107 25.4744 182.817 25.4867 182.575 25.4867Z" fill="#231F20"/>
<path id="Vector_16" d="M191.898 25.4866C191.26 25.4913 190.623 25.4336 189.995 25.3142C189.459 25.2142 188.942 25.0195 188.464 24.7378C188.034 24.4796 187.676 24.101 187.428 23.6417C187.161 23.1028 187.032 22.4964 187.054 21.8855C187.054 20.9183 187.304 20.1531 187.803 19.5899C188.384 18.9788 189.114 18.5586 189.909 18.378C190.957 18.1099 192.027 17.9515 193.103 17.9051C194.32 17.8362 195.649 17.8017 197.091 17.8017V17.3633C197.114 16.9313 196.993 16.5048 196.749 16.1613C196.472 15.8397 196.111 15.6178 195.713 15.5258C195.12 15.3807 194.514 15.3154 193.906 15.3312C193.394 15.3275 192.883 15.3695 192.377 15.4568C191.991 15.5144 191.617 15.648 191.275 15.8509C191.157 15.9134 191.056 16.0098 190.984 16.1296C190.913 16.2495 190.873 16.3882 190.869 16.5307V16.7623H187.495C187.48 16.7057 187.47 16.648 187.463 16.5898C187.454 16.5246 187.45 16.4587 187.451 16.3928C187.45 16.0373 187.516 15.6852 187.644 15.3579C187.773 15.0306 187.962 14.7349 188.2 14.4888C188.699 13.942 189.443 13.5183 190.433 13.2178C192.782 12.6366 195.221 12.6173 197.577 13.1612C198.51 13.4223 199.218 13.8533 199.704 14.4543C200.189 15.0553 200.432 15.855 200.432 16.8534V21.9545C200.42 22.1871 200.476 22.4179 200.591 22.6146C200.656 22.7008 200.74 22.7684 200.835 22.8114C200.93 22.8544 201.034 22.8714 201.137 22.8609H202.248V25.0777C201.969 25.1884 201.683 25.2773 201.392 25.3437C200.957 25.4464 200.512 25.496 200.066 25.4915C199.54 25.5125 199.015 25.429 198.517 25.2452C198.184 25.121 197.896 24.8865 197.694 24.5752C197.522 24.2899 197.399 23.9738 197.331 23.6417H197.16C196.732 24.0422 196.253 24.374 195.738 24.6269C195.167 24.9108 194.568 25.1232 193.952 25.26C193.276 25.4131 192.588 25.4891 191.898 25.4866ZM192.777 22.9249C193.225 22.9199 193.672 22.8696 194.111 22.7747C194.599 22.6777 195.076 22.5308 195.537 22.3363C195.949 22.1745 196.327 21.9277 196.651 21.6096C196.788 21.4754 196.896 21.3113 196.97 21.1283C197.043 20.9453 197.08 20.7475 197.078 20.548V19.9002C195.821 19.8862 194.565 19.9479 193.315 20.085C192.557 20.1466 191.813 20.3421 191.113 20.6638C190.627 20.9249 190.384 21.2944 190.385 21.7722C190.376 21.9182 190.404 22.0641 190.466 22.1943C190.528 22.3245 190.622 22.434 190.737 22.5111C191.017 22.6887 191.327 22.8026 191.65 22.8461C192.023 22.9032 192.4 22.9296 192.777 22.9249Z" fill="#231F20"/>
<path id="Vector_17" d="M203.724 25.2131V13.0454H206.419L206.647 15.0996H206.838C207.22 14.5464 207.695 14.0767 208.239 13.7154C208.755 13.3735 209.318 13.124 209.907 12.9764C210.478 12.8312 211.063 12.7568 211.65 12.7547C212.571 12.724 213.486 12.9098 214.334 13.2991C215.029 13.637 215.598 14.2185 215.949 14.9494C216.332 15.8208 216.515 16.7788 216.483 17.7425V25.2131H213.154V18.3312C213.163 17.9111 213.097 17.4929 212.96 17.0997C212.847 16.7751 212.662 16.4851 212.422 16.2548C212.178 16.0289 211.889 15.8671 211.577 15.7819C211.211 15.6771 210.834 15.6266 210.455 15.6316C209.877 15.6258 209.307 15.764 208.787 16.0356C208.292 16.2876 207.863 16.6674 207.537 17.1415C207.213 17.6207 207.044 18.2013 207.055 18.7943V25.2131H203.724Z" fill="#231F20"/>
<path id="Vector_18" d="M61.1482 44.179V28.3167H63.4572V34.967H74.4274V28.3167H76.757V44.179H74.4274V37.1838H63.4572V44.179H61.1482Z" fill="#231F20"/>
<path id="Vector_19" d="M86.7233 44.4526C85.3254 44.4526 84.1488 44.2146 83.1936 43.7383C82.2746 43.2951 81.5105 42.547 81.0123 41.6028C80.5119 40.657 80.2624 39.4837 80.2639 38.0831C80.2654 36.6824 80.5149 35.5124 81.0123 34.5731C81.5131 33.6342 82.2768 32.8909 83.1936 32.4499C84.1488 31.9721 85.3254 31.7332 86.7233 31.7332C87.9294 31.696 89.1288 31.9405 90.2393 32.4499C91.1609 32.8877 91.929 33.6315 92.432 34.5731C92.9294 35.5124 93.1788 36.6824 93.1803 38.0831C93.1819 39.4837 92.9324 40.657 92.432 41.6028C91.9317 42.5497 91.1631 43.2983 90.2393 43.7383C89.1283 44.2458 87.9292 44.4894 86.7233 44.4526ZM86.7233 42.63C87.4849 42.6462 88.2414 42.4928 88.9456 42.1792C89.5702 41.8938 90.0944 41.4012 90.4424 40.7728C90.8247 40.0195 91.0093 39.1679 90.9763 38.3097V37.8491C91.0098 36.9963 90.8251 36.1501 90.4424 35.4032C90.0929 34.7784 89.5689 34.2894 88.9456 34.0066C88.2414 33.693 87.4849 33.5396 86.7233 33.5559C85.9573 33.5401 85.1964 33.6935 84.4873 34.0066C83.8598 34.2872 83.3315 34.7764 82.9791 35.4032C82.5964 36.1501 82.4116 36.9963 82.4452 37.8491V38.3097C82.4122 39.1679 82.5968 40.0195 82.9791 40.7728C83.33 41.4032 83.8585 41.896 84.4873 42.1792C85.1964 42.4923 85.9573 42.6457 86.7233 42.63Z" fill="#231F20"/>
<path id="Vector_20" d="M100.536 44.4526C99.0244 44.4526 97.8767 44.0873 97.0933 43.3565C96.31 42.6258 95.9175 41.437 95.916 39.79V32.0115H98.0129V39.3762C97.9983 39.9252 98.0756 40.4725 98.241 40.992C98.3698 41.3751 98.6009 41.7085 98.905 41.9501C99.2091 42.1777 99.5556 42.3308 99.9203 42.3984C100.337 42.4793 100.759 42.5181 101.182 42.5142C101.861 42.5158 102.532 42.3587 103.149 42.0535C103.755 41.7641 104.281 41.3111 104.678 40.7383C105.074 40.1568 105.281 39.4501 105.266 38.7284V32.0115H107.361V44.1792H105.693L105.522 42.0314H105.351C104.978 42.6308 104.489 43.1352 103.918 43.5092C103.395 43.8516 102.825 44.1011 102.229 44.2482C101.673 44.382 101.106 44.4505 100.536 44.4526Z" fill="#231F20"/>
<path id="Vector_21" d="M115.695 44.4525C114.925 44.4588 114.156 44.3854 113.398 44.2333C112.755 44.1107 112.132 43.8892 111.547 43.5757C111.06 43.3205 110.641 42.9357 110.329 42.4574C110.036 41.9744 109.887 41.4063 109.902 40.8293C109.902 40.7529 109.902 40.6766 109.902 40.5978C109.909 40.5281 109.919 40.459 109.934 40.3909H112.072C112.075 40.4368 112.075 40.4829 112.072 40.5288C112.065 40.5744 112.061 40.6205 112.061 40.6667C112.05 40.9074 112.093 41.1472 112.186 41.3663C112.279 41.5853 112.419 41.777 112.595 41.9254C112.999 42.2473 113.468 42.4609 113.964 42.5486C114.538 42.6659 115.122 42.7245 115.707 42.7234C116.305 42.7275 116.902 42.6731 117.491 42.5609C117.969 42.483 118.425 42.2939 118.828 42.0067C118.994 41.8841 119.128 41.718 119.218 41.5241C119.307 41.3302 119.35 41.1149 119.342 40.8983C119.356 40.6751 119.319 40.4515 119.233 40.2479C119.147 40.0444 119.015 39.8674 118.849 39.7332C118.415 39.435 117.926 39.2417 117.416 39.1667C116.789 39.0436 116.034 38.913 115.15 38.7751C114.484 38.6661 113.824 38.5198 113.172 38.3366C112.642 38.194 112.132 37.9761 111.655 37.6888C111.26 37.4566 110.928 37.117 110.692 36.7036C110.459 36.2528 110.344 35.7417 110.361 35.2257C110.344 34.6998 110.463 34.1791 110.704 33.7222C110.946 33.2653 111.301 32.8904 111.73 32.6395C112.266 32.3156 112.848 32.0893 113.453 31.9695C114.253 31.8051 115.066 31.7276 115.88 31.738C116.627 31.7282 117.373 31.8109 118.103 31.9843C118.679 32.1178 119.232 32.3516 119.739 32.6764C120.158 32.9463 120.514 33.3183 120.777 33.7627C121.018 34.1816 121.144 34.666 121.14 35.1592V35.312C121.138 35.3741 121.131 35.4359 121.119 35.4967H118.981V35.4056C118.992 35.1848 118.957 34.9642 118.878 34.7603C118.799 34.5564 118.678 34.3745 118.525 34.2282C118.195 33.9351 117.803 33.736 117.384 33.6494C116.888 33.5395 116.384 33.4859 115.878 33.4893C115.563 33.4893 115.214 33.504 114.828 33.5361C114.449 33.5649 114.073 33.6342 113.706 33.743C113.386 33.8292 113.084 33.9823 112.818 34.1937C112.706 34.2913 112.616 34.4163 112.557 34.5584C112.498 34.7006 112.471 34.8558 112.478 35.0115C112.475 35.2128 112.523 35.4114 112.617 35.5852C112.711 35.7591 112.848 35.9015 113.012 35.9967C113.447 36.2578 113.921 36.4337 114.413 36.5164C114.99 36.633 115.613 36.7447 116.284 36.8514C116.955 36.9581 117.611 37.0772 118.251 37.2085C118.825 37.3209 119.382 37.5156 119.907 37.7874C120.401 38.0264 120.815 38.4235 121.092 38.9249C121.37 39.4263 121.498 40.0078 121.459 40.5904C121.475 41.2091 121.342 41.8218 121.073 42.3687C120.807 42.8713 120.419 43.286 119.951 43.5683C119.389 43.9027 118.777 44.1293 118.144 44.2382C117.335 44.3866 116.516 44.4584 115.695 44.4525Z" fill="#231F20"/>
<path id="Vector_22" d="M130.216 44.4525C129.009 44.4877 127.808 44.2563 126.686 43.7727C125.751 43.3509 124.968 42.6139 124.453 41.6717C123.928 40.7258 123.666 39.537 123.666 38.1051C123.666 36.6732 123.921 35.4958 124.432 34.573C124.943 33.6297 125.718 32.8861 126.645 32.4498C127.753 31.9425 128.949 31.698 130.152 31.733C131.593 31.733 132.783 31.9793 133.723 32.472C134.6 32.9032 135.332 33.6175 135.818 34.5163C136.29 35.4539 136.526 36.5087 136.502 37.5755V38.7061H125.897C125.911 39.6601 126.11 40.4253 126.495 41.0017C126.883 41.5819 127.428 42.0174 128.055 42.248C128.786 42.5149 129.553 42.644 130.323 42.6298C130.84 42.6349 131.355 42.5611 131.852 42.4106C132.284 42.2795 132.698 42.0856 133.082 41.8342C133.412 41.6205 133.702 41.3423 133.938 41.014C134.137 40.7407 134.262 40.4135 134.3 40.0682H136.395C136.375 40.6152 136.245 41.1509 136.012 41.6372C135.741 42.1952 135.357 42.6802 134.889 43.0559C134.31 43.5191 133.657 43.8638 132.963 44.0732C132.07 44.3433 131.144 44.4711 130.216 44.4525ZM125.897 37.0632H134.3C134.318 36.4874 134.201 35.9162 133.958 35.4031C133.737 34.963 133.414 34.5922 133.02 34.3267C132.606 34.048 132.151 33.8488 131.674 33.738C131.158 33.6138 130.631 33.5518 130.102 33.5533C129.392 33.5425 128.686 33.6676 128.017 33.9227C127.429 34.1437 126.913 34.5441 126.531 35.0755C126.144 35.6573 125.923 36.3494 125.897 37.0656V37.0632Z" fill="#231F20"/>
</g>
</svg>
