<svg width="217" height="52" viewBox="0 0 217 52" fill="none" xmlns="http://www.w3.org/2000/svg">
<g id="Layer 1">
<path id="Vector" d="M34.9094 35.8693H31.0032V43.8448H34.9094V35.8693Z" fill="#071D21"/>
<path id="Vector_2" d="M27.1312 9.99431C31.569 10.0027 35.9627 9.04522 40.0499 7.17898C41.3569 6.58211 42.6273 5.89598 43.8534 5.12475L41.4828 0.691162C37.1314 3.44735 32.1764 4.89729 27.1312 4.89075C22.1836 4.897 17.3209 3.50248 13.0283 0.846338L10.6577 5.27992C11.8067 5.98918 12.9938 6.62414 14.2125 7.18144C18.2999 9.04684 22.6936 10.0035 27.1312 9.99431Z" fill="#EE2B7B"/>
<path id="Vector_3" d="M14.3904 18.0906C16.6171 13.9455 18.0458 9.35794 18.5909 4.60261C18.7661 3.08292 18.8507 1.55264 18.8441 0.0212402H14.1029C14.1379 5.46778 12.8232 10.8254 10.2948 15.5388C7.82633 20.1674 4.27668 24.0164 0 26.7016L2.37063 31.1352C3.51366 30.4157 4.61611 29.6237 5.67218 28.7632C9.21418 25.8755 12.1795 22.2454 14.3904 18.0906Z" fill="#92278F"/>
<path id="Vector_4" d="M39.995 34.049C42.9274 28.5527 47.1617 23.9977 52.2635 20.8517L54.6364 25.2853C50.2952 27.9538 46.6824 31.8107 44.1624 36.4672C41.6423 41.1236 40.3041 46.4151 40.2825 51.808H35.5413C35.5481 50.3793 35.6334 48.9523 35.7968 47.5345C36.3411 42.7801 37.769 38.1933 39.995 34.049Z" fill="#F8971D"/>
<path id="Vector_5" d="M14.3904 33.7387C16.6168 37.8838 18.0455 42.4714 18.5909 47.2266C18.7661 48.7463 18.8507 50.2766 18.8441 51.808H14.1029C14.1379 46.3615 12.8232 41.0039 10.2948 36.2904C7.82764 31.6614 4.27764 27.8129 0 25.1301L2.37063 20.6965C3.51366 21.416 4.61611 22.208 5.67218 23.0685C9.21343 25.956 12.1786 29.5852 14.3904 33.7387Z" fill="#DC4E26"/>
<path id="Vector_6" d="M39.995 17.7802C42.2077 21.9338 45.1736 25.5628 48.7155 28.4504C49.8473 29.374 51.0323 30.2189 52.2635 30.98L54.6364 26.5464C50.2486 23.8583 46.6073 19.9512 44.0906 15.2309C41.6109 10.6078 40.2979 5.3634 40.2825 0.0212402L35.5413 0.0212402C35.548 1.44994 35.6333 2.87695 35.7968 4.29473C36.3411 9.04913 37.769 13.636 39.995 17.7802Z" fill="#1E9C73"/>
<path id="Vector_7" d="M44.1065 47.6847L44.0974 50.9262L39.3151 50.9089L26.8413 42.4876L14.3173 50.8227L9.85669 50.8079L9.86582 47.3522L26.8595 36.0416L29.9626 38.1377L44.1065 47.6847Z" fill="#071D21"/>
<path id="Vector_8" d="M68.0252 24.6523V11.0067H61.397V8.78992H77.008V11.0067H70.357V24.6523H68.0252Z" fill="#231F20"/>
<path id="Vector_9" d="M79.2532 24.6522V7.93762H81.3477V14.354H81.4755C81.8545 13.8171 82.3313 13.3694 82.8764 13.0387C83.3765 12.7394 83.9147 12.5212 84.4736 12.3909C84.9989 12.2714 85.534 12.2096 86.0707 12.2062C86.9418 12.1806 87.8085 12.3483 88.6171 12.6988C89.2766 13.0001 89.8225 13.533 90.1663 14.2111C90.5162 14.8959 90.6911 15.7925 90.6911 16.9009V24.6522H88.5965V17.3097C88.6165 16.7604 88.5391 16.2119 88.3684 15.6939C88.2359 15.3129 88.0056 14.9805 87.7044 14.7358C87.4045 14.5052 87.0621 14.3473 86.7005 14.2727C86.2848 14.1858 85.8621 14.1437 85.4387 14.1471C84.7588 14.1461 84.0872 14.3076 83.4719 14.62C82.8686 14.9138 82.3431 15.366 81.9432 15.9353C81.5462 16.5117 81.339 17.2148 81.3546 17.9329V24.6522H79.2532Z" fill="#231F20"/>
<path id="Vector_10" d="M99.9727 24.9256C98.7663 24.961 97.5659 24.7297 96.4453 24.2458C95.5095 23.8242 94.7252 23.0872 94.2093 22.1448C93.6891 21.199 93.429 20.0101 93.429 18.5782C93.429 17.1463 93.6822 15.969 94.1887 15.0461C94.6991 14.1028 95.4742 13.3592 96.4019 12.9229C97.5099 12.4156 98.7058 12.1712 99.9088 12.2062C101.349 12.2062 102.54 12.4525 103.48 12.9451C104.357 13.3764 105.089 14.0906 105.574 14.9895C106.046 15.927 106.282 16.9819 106.259 18.0487V19.1792H95.6536C95.6299 19.9925 95.8386 20.794 96.2514 21.4748C96.6392 22.055 97.1846 22.4906 97.812 22.7212C98.5421 22.988 99.3093 23.1171 100.08 23.1029C100.597 23.1081 101.111 23.0343 101.609 22.8837C102.041 22.7526 102.455 22.5587 102.838 22.3074C103.168 22.0936 103.458 21.8155 103.694 21.4871C103.893 21.2139 104.019 20.8866 104.057 20.5413H106.151C106.132 21.0884 106.001 21.6241 105.768 22.1103C105.498 22.6684 105.114 23.1533 104.646 23.5291C104.067 23.9922 103.414 24.337 102.72 24.5463C101.826 24.8164 100.901 24.9442 99.9727 24.9256ZM95.6536 17.5363H104.057C104.075 16.9606 103.957 16.3893 103.715 15.8762C103.495 15.437 103.175 15.0663 102.784 14.7998C102.37 14.5211 101.914 14.322 101.438 14.2111C100.921 14.0869 100.394 14.025 99.8655 14.0264C99.1556 14.0157 98.4495 14.1408 97.7801 14.3959C97.1885 14.6172 96.6692 15.0194 96.2856 15.5535C95.8995 16.1343 95.6798 16.8245 95.6536 17.5388V17.5363Z" fill="#231F20"/>
<path id="Vector_11" d="M116.887 24.9256C115.811 24.9319 114.736 24.8587 113.669 24.7064C112.763 24.5876 111.879 24.3202 111.048 23.9133C110.333 23.5684 109.724 23.0115 109.291 22.3074C108.852 21.5179 108.636 20.6069 108.67 19.6866V19.5709C108.669 19.5308 108.677 19.4911 108.693 19.4551H112.305C112.291 19.5238 112.284 19.594 112.284 19.6645V19.9108C112.279 20.134 112.325 20.3552 112.418 20.5546C112.512 20.754 112.649 20.9254 112.818 21.0537C113.282 21.3907 113.81 21.6105 114.363 21.6965C115.14 21.8359 115.928 21.901 116.715 21.8911C117.101 21.8911 117.489 21.8763 117.881 21.8468C118.274 21.8172 118.65 21.7655 119.022 21.6965C119.356 21.6374 119.682 21.5399 119.996 21.4059C120.254 21.3045 120.488 21.143 120.681 20.933C120.763 20.8414 120.827 20.7329 120.869 20.614C120.912 20.4951 120.931 20.3681 120.927 20.2408C120.926 20.0574 120.879 19.8777 120.791 19.721C120.702 19.5644 120.576 19.4367 120.425 19.3516C120.006 19.0948 119.552 18.9118 119.079 18.8098C118.516 18.6718 117.881 18.5635 117.176 18.4526C116.471 18.3418 115.739 18.2359 114.984 18.1053C114.243 17.9782 113.511 17.8005 112.791 17.5733C112.125 17.3692 111.485 17.0746 110.888 16.6964C110.341 16.3529 109.879 15.8711 109.542 15.2925C109.191 14.6596 109.017 13.931 109.04 13.1939C109.026 12.4742 109.212 11.7666 109.574 11.1618C109.967 10.5404 110.496 10.0329 111.114 9.68396C111.874 9.25046 112.692 8.95031 113.539 8.79478C114.594 8.59299 115.663 8.49652 116.734 8.5066C117.806 8.49265 118.876 8.59747 119.928 8.81941C120.747 8.98489 121.537 9.28827 122.269 9.71845C122.855 10.0614 123.349 10.563 123.702 11.1741C124.027 11.7708 124.193 12.4525 124.183 13.1446V13.4895H120.585V13.2431C120.58 13.0664 120.536 12.8936 120.457 12.7389C120.377 12.5843 120.265 12.4523 120.129 12.354C119.741 12.062 119.305 11.8545 118.844 11.7431C118.218 11.5799 117.576 11.5021 116.932 11.5116C116.151 11.4963 115.37 11.5623 114.6 11.7086C114.129 11.786 113.678 11.9671 113.275 12.2407C113.153 12.3163 113.05 12.4234 112.975 12.5523C112.901 12.6812 112.857 12.828 112.848 12.9796C112.852 13.1519 112.901 13.3195 112.99 13.4627C113.079 13.6058 113.204 13.7185 113.35 13.7875C113.774 14.023 114.227 14.1891 114.696 14.2801C115.259 14.4033 115.893 14.5149 116.599 14.6151C117.306 14.7136 118.036 14.8343 118.792 14.9722C119.53 15.1059 120.262 15.2793 120.984 15.492C121.653 15.6823 122.294 15.9733 122.887 16.3565C123.425 16.7006 123.885 17.1702 124.233 17.7309C124.585 18.3425 124.76 19.0534 124.735 19.7728C124.735 21.0192 124.401 22.0233 123.731 22.7852C122.969 23.6036 122.009 24.1752 120.962 24.4355C119.629 24.7891 118.259 24.9539 116.887 24.9256Z" fill="#231F20"/>
<path id="Vector_12" d="M127.28 24.6523V12.4846H129.974L130.202 14.5388H130.394C130.763 13.9864 131.228 13.5164 131.763 13.1546C132.263 12.8131 132.812 12.5635 133.388 12.4156C133.944 12.2706 134.515 12.1962 135.087 12.194C135.997 12.1616 136.901 12.3554 137.729 12.7605C138.424 13.1252 138.968 13.7543 139.258 14.5265H139.473C139.84 13.9722 140.305 13.5018 140.842 13.1422C141.346 12.802 141.899 12.5524 142.478 12.4033C143.042 12.2572 143.62 12.1829 144.2 12.1816C145.079 12.1527 145.953 12.3388 146.756 12.726C147.431 13.0704 147.977 13.6524 148.305 14.3763C148.674 15.252 148.849 16.2081 148.818 17.1694V24.6523H145.476V17.7704C145.484 17.3514 145.422 16.9342 145.293 16.5389C145.188 16.2178 145.013 15.9289 144.782 15.6965C144.555 15.4763 144.284 15.3146 143.99 15.2236C143.653 15.1185 143.303 15.0679 142.952 15.0733C142.397 15.0675 141.85 15.206 141.355 15.4773C140.878 15.734 140.466 16.1139 140.157 16.5832C139.848 17.0686 139.688 17.6469 139.701 18.2359V24.6523H136.367V17.7704C136.375 17.3524 136.317 16.936 136.196 16.5389C136.097 16.2165 135.923 15.9267 135.692 15.6965C135.466 15.4758 135.196 15.3141 134.903 15.2236C134.558 15.1177 134.202 15.0671 133.844 15.0733C133.289 15.0672 132.741 15.2058 132.247 15.4773C131.77 15.7316 131.361 16.1121 131.058 16.5832C130.751 17.0699 130.592 17.6473 130.602 18.2359V24.6523H127.28Z" fill="#231F20"/>
<path id="Vector_13" d="M155.996 24.9256C155.359 24.9303 154.722 24.8726 154.094 24.7532C153.554 24.6543 153.034 24.4596 152.553 24.1768C152.123 23.9187 151.765 23.54 151.518 23.0808C151.25 22.5418 151.121 21.9355 151.143 21.3246C151.143 20.3574 151.393 19.5922 151.892 19.0289C152.473 18.4179 153.204 17.9976 153.998 17.8171C155.046 17.5489 156.116 17.3905 157.192 17.3442C158.409 17.2752 159.738 17.2407 161.18 17.2407V16.8023C161.203 16.3703 161.082 15.9439 160.838 15.6003C160.561 15.2787 160.2 15.0569 159.802 14.9648C159.21 14.8199 158.603 14.7546 157.995 14.7702C157.483 14.7665 156.972 14.8085 156.466 14.8959C156.08 14.9535 155.706 15.087 155.364 15.29C155.246 15.3524 155.145 15.4488 155.073 15.5687C155.002 15.6885 154.962 15.8272 154.958 15.9698V16.2013H151.593C151.577 16.1397 151.568 16.0831 151.559 16.0289C151.555 15.9633 151.555 15.8975 151.559 15.8318C151.557 15.4763 151.623 15.1242 151.752 14.797C151.88 14.4697 152.069 14.174 152.307 13.9279C152.804 13.3811 153.549 12.9574 154.541 12.6569C156.889 12.0757 159.326 12.0564 161.682 12.6002C162.497 12.7872 163.24 13.2384 163.811 13.8934C164.295 14.4927 164.537 15.2924 164.539 16.2924V21.3935C164.527 21.6262 164.583 21.857 164.699 22.0536C164.764 22.1399 164.848 22.2075 164.943 22.2505C165.038 22.2934 165.141 22.3104 165.244 22.3H166.355V24.5167C166.076 24.6275 165.79 24.7164 165.5 24.7828C165.064 24.8855 164.619 24.9351 164.174 24.9305C163.648 24.9515 163.123 24.868 162.625 24.6842C162.292 24.56 162.003 24.3256 161.801 24.0143C161.629 23.729 161.506 23.4128 161.438 23.0808H161.267C160.839 23.4818 160.36 23.8136 159.843 24.066C159.273 24.3502 158.674 24.5626 158.059 24.699C157.381 24.8529 156.689 24.9288 155.996 24.9256ZM156.873 22.364C157.322 22.359 157.769 22.3087 158.21 22.2137C158.695 22.1164 159.171 21.9696 159.631 21.7753C160.042 21.6135 160.421 21.3667 160.745 21.0487C160.881 20.9144 160.99 20.7504 161.064 20.5674C161.137 20.3844 161.174 20.1866 161.171 19.9871V19.3393C159.915 19.3252 158.659 19.3869 157.409 19.524C156.65 19.586 155.905 19.7816 155.205 20.1029C154.721 20.364 154.479 20.7334 154.479 21.2113C154.47 21.3573 154.498 21.5032 154.56 21.6334C154.622 21.7636 154.715 21.8731 154.831 21.9502C155.11 22.1281 155.421 22.2421 155.743 22.2852C156.117 22.3424 156.495 22.3688 156.873 22.364Z" fill="#231F20"/>
<path id="Vector_14" d="M167.822 24.6522V12.4845H170.517L170.745 14.5855H170.916C171.103 14.1377 171.359 13.7278 171.674 13.3737C171.997 13.0092 172.385 12.7185 172.815 12.519C173.29 12.3032 173.802 12.1967 174.318 12.2061C174.575 12.2062 174.832 12.226 175.087 12.2653C175.326 12.2997 175.562 12.3574 175.792 12.4377V15.4624H174.147C173.677 15.4494 173.209 15.5478 172.778 15.7506C172.42 15.9293 172.106 16.1988 171.865 16.5363C171.63 16.8682 171.453 17.2438 171.343 17.6447C171.228 18.0602 171.17 18.4918 171.172 18.9255V24.6522H167.822Z" fill="#231F20"/>
<path id="Vector_15" d="M182.575 24.9257C181.845 24.9506 181.116 24.8296 180.426 24.5686C179.878 24.3463 179.431 23.9054 179.176 23.337C178.905 22.7606 178.769 21.9724 178.769 20.9724V15.1152H176.6V12.4846H178.881L179.538 8.88843H182.105V12.4846H185.206V15.1152H182.105V20.5167C182.075 20.9836 182.184 21.4487 182.416 21.8444C182.621 22.1449 183.068 22.2951 183.753 22.2951H185.206V24.5341C184.951 24.625 184.69 24.6942 184.426 24.741C184.104 24.8025 183.778 24.8493 183.442 24.8814C183.107 24.9134 182.817 24.9257 182.575 24.9257Z" fill="#231F20"/>
<path id="Vector_16" d="M191.898 24.9257C191.26 24.9304 190.623 24.8727 189.995 24.7532C189.459 24.6533 188.942 24.4586 188.464 24.1769C188.034 23.9187 187.676 23.54 187.428 23.0808C187.161 22.5418 187.032 21.9355 187.054 21.3246C187.054 20.3574 187.304 19.5922 187.803 19.029C188.384 18.4179 189.114 17.9976 189.909 17.8171C190.957 17.5489 192.027 17.3906 193.103 17.3442C194.32 17.2753 195.649 17.2408 197.091 17.2408V16.8023C197.114 16.3704 196.993 15.9439 196.749 15.6003C196.472 15.2788 196.111 15.0569 195.713 14.9649C195.12 14.8198 194.514 14.7545 193.906 14.7703C193.394 14.7665 192.883 14.8086 192.377 14.8959C191.991 14.9535 191.617 15.0871 191.275 15.29C191.157 15.3525 191.056 15.4489 190.984 15.5687C190.913 15.6885 190.873 15.8273 190.869 15.9698V16.2013H187.495C187.48 16.1447 187.47 16.0871 187.463 16.0289C187.454 15.9637 187.45 15.8978 187.451 15.8319C187.45 15.4763 187.516 15.1243 187.644 14.797C187.773 14.4697 187.962 14.174 188.2 13.9279C188.699 13.3811 189.443 12.9574 190.433 12.6569C192.782 12.0757 195.221 12.0563 197.577 12.6003C198.51 12.8614 199.218 13.2924 199.704 13.8934C200.189 14.4944 200.432 15.2941 200.432 16.2925V21.3936C200.42 21.6262 200.476 21.857 200.591 22.0537C200.656 22.1399 200.74 22.2075 200.835 22.2505C200.93 22.2935 201.034 22.3105 201.137 22.3H202.248V24.5168C201.969 24.6275 201.683 24.7164 201.392 24.7828C200.957 24.8855 200.512 24.9351 200.066 24.9306C199.54 24.9516 199.015 24.8681 198.517 24.6843C198.184 24.56 197.896 24.3256 197.694 24.0143C197.522 23.729 197.399 23.4129 197.331 23.0808H197.16C196.732 23.4812 196.253 23.8131 195.738 24.066C195.167 24.3499 194.568 24.5623 193.952 24.699C193.276 24.8522 192.588 24.9282 191.898 24.9257ZM192.777 22.364C193.225 22.3589 193.672 22.3086 194.111 22.2138C194.599 22.1167 195.076 21.9699 195.537 21.7753C195.949 21.6136 196.327 21.3668 196.651 21.0487C196.788 20.9145 196.896 20.7504 196.97 20.5674C197.043 20.3844 197.08 20.1866 197.078 19.9871V19.3393C195.821 19.3253 194.565 19.387 193.315 19.5241C192.557 19.5857 191.813 19.7812 191.113 20.1029C190.627 20.364 190.384 20.7335 190.385 21.2113C190.376 21.3573 190.404 21.5032 190.466 21.6334C190.528 21.7636 190.622 21.8731 190.737 21.9502C191.017 22.1277 191.327 22.2417 191.65 22.2852C192.023 22.3423 192.4 22.3686 192.777 22.364Z" fill="#231F20"/>
<path id="Vector_17" d="M203.724 24.6523V12.4846H206.419L206.647 14.5388H206.838C207.22 13.9857 207.695 13.5159 208.239 13.1546C208.755 12.8127 209.318 12.5632 209.907 12.4156C210.478 12.2704 211.063 12.196 211.65 12.1939C212.571 12.1632 213.486 12.349 214.334 12.7383C215.029 13.0762 215.598 13.6577 215.949 14.3886C216.332 15.2601 216.515 16.218 216.483 17.1817V24.6523H213.154V17.7704C213.163 17.3503 213.097 16.9322 212.96 16.5389C212.847 16.2143 212.662 15.9243 212.422 15.694C212.178 15.4681 211.889 15.3063 211.577 15.2211C211.211 15.1163 210.834 15.0658 210.455 15.0709C209.877 15.065 209.307 15.2032 208.787 15.4748C208.292 15.7268 207.863 16.1067 207.537 16.5807C207.213 17.0599 207.044 17.6405 207.055 18.2335V24.6523H203.724Z" fill="#231F20"/>
<path id="Vector_18" d="M61.1482 43.6181V27.7557H63.4572V34.4061H74.4274V27.7557H76.757V43.6181H74.4274V36.6229H63.4572V43.6181H61.1482Z" fill="#231F20"/>
<path id="Vector_19" d="M86.7233 43.8916C85.3254 43.8916 84.1488 43.6535 83.1936 43.1773C82.2746 42.734 81.5105 41.986 81.0123 41.0418C80.5119 40.096 80.2624 38.9227 80.2639 37.522C80.2654 36.1213 80.5149 34.9514 81.0123 34.0121C81.5131 33.0732 82.2768 32.3299 83.1936 31.8889C84.1488 31.4111 85.3254 31.1721 86.7233 31.1721C87.9294 31.135 89.1288 31.3794 90.2393 31.8889C91.1609 32.3267 91.929 33.0705 92.432 34.0121C92.9294 34.9514 93.1788 36.1213 93.1803 37.522C93.1819 38.9227 92.9324 40.096 92.432 41.0418C91.9317 41.9887 91.1631 42.7372 90.2393 43.1773C89.1283 43.6847 87.9292 43.9283 86.7233 43.8916ZM86.7233 42.0689C87.4849 42.0852 88.2414 41.9318 88.9456 41.6182C89.5702 41.3328 90.0944 40.8402 90.4424 40.2117C90.8247 39.4584 91.0093 38.6068 90.9763 37.7486V37.288C91.0098 36.4353 90.8251 35.589 90.4424 34.8422C90.0929 34.2174 89.5689 33.7284 88.9456 33.4456C88.2414 33.132 87.4849 32.9786 86.7233 32.9948C85.9573 32.9791 85.1964 33.1325 84.4873 33.4456C83.8598 33.7262 83.3315 34.2154 82.9791 34.8422C82.5964 35.589 82.4116 36.4353 82.4452 37.288V37.7486C82.4122 38.6068 82.5968 39.4584 82.9791 40.2117C83.33 40.8422 83.8585 41.335 84.4873 41.6182C85.1964 41.9313 85.9573 42.0846 86.7233 42.0689Z" fill="#231F20"/>
<path id="Vector_20" d="M100.536 43.8916C99.0244 43.8916 97.8767 43.5262 97.0933 42.7955C96.31 42.0648 95.9175 40.8759 95.916 39.2289V31.4504H98.0129V38.8151C97.9983 39.3641 98.0756 39.9115 98.241 40.4309C98.3698 40.8141 98.6009 41.1475 98.905 41.3891C99.2091 41.6167 99.5556 41.7697 99.9203 41.8374C100.337 41.9183 100.759 41.957 101.182 41.9531C101.861 41.9548 102.532 41.7976 103.149 41.4925C103.755 41.203 104.281 40.75 104.678 40.1772C105.074 39.5957 105.281 38.8891 105.266 38.1673V31.4504H107.361V43.6182H105.693L105.522 41.4703H105.351C104.978 42.0698 104.489 42.5741 103.918 42.9482C103.395 43.2906 102.825 43.5401 102.229 43.6871C101.673 43.8209 101.106 43.8895 100.536 43.8916Z" fill="#231F20"/>
<path id="Vector_21" d="M115.695 43.8916C114.925 43.8978 114.156 43.8244 113.398 43.6724C112.755 43.5497 112.132 43.3283 111.547 43.0148C111.06 42.7596 110.641 42.3747 110.329 41.8965C110.036 41.4135 109.887 40.8454 109.902 40.2684C109.902 40.192 109.902 40.1157 109.902 40.0369C109.909 39.9672 109.919 39.898 109.934 39.83H112.072C112.075 39.8759 112.075 39.922 112.072 39.9679C112.065 40.0135 112.061 40.0596 112.061 40.1058C112.05 40.3464 112.093 40.5863 112.186 40.8054C112.279 41.0244 112.419 41.2161 112.595 41.3645C112.999 41.6864 113.468 41.9 113.964 41.9876C114.538 42.105 115.122 42.1636 115.707 42.1625C116.305 42.1666 116.902 42.1121 117.491 42C117.969 41.9221 118.425 41.733 118.828 41.4458C118.994 41.3231 119.128 41.1571 119.218 40.9632C119.307 40.7693 119.35 40.5539 119.342 40.3374C119.356 40.1142 119.319 39.8906 119.233 39.687C119.147 39.4835 119.015 39.3065 118.849 39.1723C118.415 38.8741 117.926 38.6808 117.416 38.6058C116.789 38.4826 116.034 38.3521 115.15 38.2142C114.484 38.1052 113.824 37.9589 113.172 37.7757C112.642 37.633 112.132 37.4152 111.655 37.1279C111.26 36.8957 110.928 36.5561 110.692 36.1427C110.459 35.6919 110.344 35.1808 110.361 34.6648C110.344 34.1389 110.463 33.6182 110.704 33.1613C110.946 32.7044 111.301 32.3294 111.73 32.0786C112.266 31.7547 112.848 31.5284 113.453 31.4086C114.253 31.2442 115.066 31.1666 115.88 31.1771C116.627 31.1673 117.373 31.25 118.103 31.4234C118.679 31.5569 119.232 31.7907 119.739 32.1155C120.158 32.3854 120.514 32.7574 120.777 33.2017C121.018 33.6207 121.144 34.1051 121.14 34.5983V34.751C121.138 34.8132 121.131 34.875 121.119 34.9358H118.981V34.8446C118.992 34.6239 118.957 34.4033 118.878 34.1994C118.799 33.9955 118.678 33.8136 118.525 33.6673C118.195 33.3742 117.803 33.1751 117.384 33.0884C116.888 32.9786 116.384 32.925 115.878 32.9283C115.563 32.9283 115.214 32.9431 114.828 32.9751C114.449 33.004 114.073 33.0733 113.706 33.182C113.386 33.2683 113.084 33.4214 112.818 33.6328C112.706 33.7304 112.616 33.8554 112.557 33.9975C112.498 34.1397 112.471 34.2949 112.478 34.4505C112.475 34.6519 112.523 34.8505 112.617 35.0243C112.711 35.1982 112.848 35.3406 113.012 35.4358C113.447 35.6969 113.921 35.8728 114.413 35.9555C114.99 36.0721 115.613 36.1837 116.284 36.2905C116.955 36.3972 117.611 36.5163 118.251 36.6476C118.825 36.76 119.382 36.9546 119.907 37.2265C120.401 37.4655 120.815 37.8626 121.092 38.364C121.37 38.8654 121.498 39.4469 121.459 40.0295C121.475 40.6482 121.342 41.2609 121.073 41.8078C120.807 42.3104 120.419 42.7251 119.951 43.0074C119.389 43.3418 118.777 43.5684 118.144 43.6773C117.335 43.8257 116.516 43.8974 115.695 43.8916Z" fill="#231F20"/>
<path id="Vector_22" d="M130.216 43.8916C129.009 43.9268 127.808 43.6954 126.686 43.2118C125.751 42.79 124.968 42.053 124.453 41.1107C123.928 40.1649 123.666 38.976 123.666 37.5442C123.666 36.1123 123.921 34.9349 124.432 34.0121C124.943 33.0688 125.718 32.3252 126.645 31.8889C127.753 31.3816 128.949 31.1371 130.152 31.1721C131.593 31.1721 132.783 31.4184 133.723 31.911C134.6 32.3423 135.332 33.0566 135.818 33.9554C136.29 34.893 136.526 35.9478 136.502 37.0146V38.1452H125.897C125.911 39.0992 126.11 39.8644 126.495 40.4408C126.883 41.0209 127.428 41.4565 128.055 41.6871C128.786 41.9539 129.553 42.0831 130.323 42.0689C130.84 42.074 131.355 42.0002 131.852 41.8497C132.284 41.7186 132.698 41.5247 133.082 41.2733C133.412 41.0596 133.702 40.7814 133.938 40.4531C134.137 40.1798 134.262 39.8525 134.3 39.5073H136.395C136.375 40.0543 136.245 40.59 136.012 41.0763C135.741 41.6343 135.357 42.1193 134.889 42.495C134.31 42.9581 133.657 43.3029 132.963 43.5123C132.07 43.7824 131.144 43.9102 130.216 43.8916ZM125.897 36.5023H134.3C134.318 35.9265 134.201 35.3553 133.958 34.8421C133.737 34.4021 133.414 34.0313 133.02 33.7658C132.606 33.4871 132.151 33.2879 131.674 33.1771C131.158 33.0529 130.631 32.9909 130.102 32.9923C129.392 32.9816 128.686 33.1067 128.017 33.3618C127.429 33.5828 126.913 33.9832 126.531 34.5145C126.144 35.0964 125.923 35.7885 125.897 36.5047V36.5023Z" fill="#231F20"/>
</g>
</svg>
