<svg xmlns="http://www.w3.org/2000/svg" xmlns:xlink="http://www.w3.org/1999/xlink" version="1.1" x="0px" y="0px" viewBox="0 0 16 20" style="enable-background:new 0 0 16 16;" xml:space="preserve"><g><path d="M13.5,14h-11C2.224,14,2,13.776,2,13.5v-11C2,2.224,2.224,2,2.5,2h11C13.776,2,14,2.224,14,2.5v11   C14,13.776,13.776,14,13.5,14z M3,13h10V3H3V13z"/><path d="M11.5,12h-2C9.224,12,9,11.776,9,11.5v-7C9,4.224,9.224,4,9.5,4h2C11.776,4,12,4.224,12,4.5v7C12,11.776,11.776,12,11.5,12   z M10,11h1V5h-1V11z"/></g><text x="0" y="31" fill="#000000" font-size="5px" font-weight="bold" font-family="'Helvetica Neue', Helvetica, Arial-Unicode, Arial, Sans-serif">Created by icon 54</text><text x="0" y="36" fill="#000000" font-size="5px" font-weight="bold" font-family="'Helvetica Neue', Helvetica, Arial-Unicode, Arial, Sans-serif">from the Noun Project</text></svg>