<svg xmlns="http://www.w3.org/2000/svg" xmlns:xlink="http://www.w3.org/1999/xlink" version="1.1" x="0px" y="0px" viewBox="0 0 16 20" style="enable-background:new 0 0 16 16;" xml:space="preserve"><g><path d="M13.5,14h-11C2.224,14,2,13.776,2,13.5v-11C2,2.224,2.224,2,2.5,2h11C13.776,2,14,2.224,14,2.5v11   C14,13.776,13.776,14,13.5,14z M3,13h10V3H3V13z"/><path d="M6.5,12h-2C4.224,12,4,11.776,4,11.5v-7C4,4.224,4.224,4,4.5,4h2C6.776,4,7,4.224,7,4.5v7C7,11.776,6.776,12,6.5,12z M5,11   h1V5H5V11z"/></g><text x="0" y="31" fill="#000000" font-size="5px" font-weight="bold" font-family="'Helvetica Neue', Helvetica, Arial-Unicode, Arial, Sans-serif">Created by icon 54</text><text x="0" y="36" fill="#000000" font-size="5px" font-weight="bold" font-family="'Helvetica Neue', Helvetica, Arial-Unicode, Arial, Sans-serif">from the Noun Project</text></svg>