<svg xmlns="http://www.w3.org/2000/svg" width="153" height="153" viewBox="0 0 153 153" fill="none">
  <path d="M90.9608 138.309C125.088 130.264 146.223 96.1077 138.169 62.0195C130.114 27.9312 95.9191 6.81946 61.7922 14.865C27.6653 22.9106 6.52961 57.0668 14.5843 91.155C22.639 125.243 56.8339 146.355 90.9608 138.309Z" fill="#E2A42C"/>
  <path d="M127.293 96.6087C138.361 68.5429 124.556 36.8289 96.458 25.7735C68.3604 14.7181 36.6104 28.5077 25.5425 56.5735C14.4745 84.6393 28.2798 116.353 56.3774 127.409C84.475 138.464 116.225 124.674 127.293 96.6087Z" fill="#ECB540"/>
  <path fill-rule="evenodd" clip-rule="evenodd" d="M106.462 95.1779C98.1315 126.073 56.1515 123.795 46.3315 95.1779H106.462Z" fill="#4E4E4E" stroke="#4E4E4E" stroke-width="3.84" stroke-linecap="round" stroke-linejoin="round"/>
  <path d="M93.0615 39.7907C99.7515 37.6231 110.882 44.0658 112.312 50.948" stroke="#4E4E4E" stroke-width="3.84" stroke-linecap="round" stroke-linejoin="round"/>
  <path d="M59.7314 39.7907C53.0414 37.6231 41.9114 44.0658 40.4814 50.948" stroke="#4E4E4E" stroke-width="3.84" stroke-linecap="round" stroke-linejoin="round"/>
  <path fill-rule="evenodd" clip-rule="evenodd" d="M95.8115 62.8445C100.142 62.8445 103.782 65.2446 104.832 68.4946C102.472 67.2246 99.3015 66.4346 95.8115 66.4346C92.3215 66.4346 89.1415 67.2146 86.7915 68.4946C87.8415 65.2446 91.4815 62.8445 95.8115 62.8445Z" fill="#4E4E4E" stroke="#4E4E4E" stroke-width="3.84" stroke-linecap="round" stroke-linejoin="round"/>
  <path fill-rule="evenodd" clip-rule="evenodd" d="M56.9814 62.8445C61.3114 62.8445 64.9514 65.2446 66.0014 68.4946C63.6414 67.2246 60.4714 66.4346 56.9814 66.4346C53.4914 66.4346 50.3114 67.2146 47.9614 68.4946C49.0114 65.2446 52.6514 62.8445 56.9814 62.8445Z" fill="#4E4E4E" stroke="#4E4E4E" stroke-width="3.84" stroke-linecap="round" stroke-linejoin="round"/>
  <path d="M41.8514 87.4667C47.3135 87.4667 51.7414 84.1663 51.7414 80.095C51.7414 76.0238 47.3135 72.7234 41.8514 72.7234C36.3893 72.7234 31.9614 76.0238 31.9614 80.095C31.9614 84.1663 36.3893 87.4667 41.8514 87.4667Z" fill="#E69837"/>
  <path d="M110.941 87.4667C116.403 87.4667 120.831 84.1663 120.831 80.095C120.831 76.0238 116.403 72.7234 110.941 72.7234C105.479 72.7234 101.051 76.0238 101.051 80.095C101.051 84.1663 105.479 87.4667 110.941 87.4667Z" fill="#E69837"/>
  <path fill-rule="evenodd" clip-rule="evenodd" d="M76.3915 100.931C84.7215 100.931 91.5214 107.514 91.8514 115.755C82.4314 120.689 70.5515 120.17 61.0115 114.696C61.8515 106.955 68.4215 100.931 76.3915 100.931Z" fill="#DF654D"/>
  <path fill-rule="evenodd" clip-rule="evenodd" d="M20.8015 73.872C16.1615 77.0085 14.9416 83.3213 18.0816 87.9561C21.2216 92.5908 27.5415 93.8095 32.1815 90.673C36.3915 87.8262 42.2016 74.3515 44.4416 70.1363C39.6916 70.6457 25.0115 71.0353 20.7915 73.882L20.8015 73.872Z" fill="white"/>
</svg>