<svg xmlns="http://www.w3.org/2000/svg" width="146" height="146" viewBox="0 0 146 146" fill="none">
  <path d="M83.0152 135.656C117.627 130.044 141.13 97.4684 135.512 62.896C129.894 28.3237 97.2813 4.84659 62.6697 10.4585C28.0582 16.0704 4.55449 48.6461 10.1727 83.2185C15.791 117.791 48.4037 141.268 83.0152 135.656Z" fill="#E2A42C"/>
  <path d="M86.0539 126.05C115.358 118.763 133.2 89.1261 125.904 59.8548C118.609 30.5836 88.9388 12.762 59.6343 20.0493C30.3299 27.3366 12.4882 56.9732 19.7837 86.2444C27.0793 115.516 56.7494 133.337 86.0539 126.05Z" fill="#ECB540"/>
  <path d="M82.0095 26.4069C88.6895 24.2194 99.8395 30.6421 101.28 37.5243" stroke="#4E4E4E" stroke-width="3.84" stroke-linecap="round" stroke-linejoin="round"/>
  <path d="M38.2994 74.6922C43.7615 74.6922 48.1894 71.3918 48.1894 67.3206C48.1894 63.2493 43.7615 59.9489 38.2994 59.9489C32.8373 59.9489 28.4094 63.2493 28.4094 67.3206C28.4094 71.3918 32.8373 74.6922 38.2994 74.6922Z" fill="#E69837"/>
  <path d="M107.38 74.6922C112.842 74.6922 117.27 71.3918 117.27 67.3206C117.27 63.2493 112.842 59.9489 107.38 59.9489C101.917 59.9489 97.4895 63.2493 97.4895 67.3206C97.4895 71.3918 101.917 74.6922 107.38 74.6922Z" fill="#E69837"/>
  <path d="M42.7795 78.368C58.9295 93.5708 87.5695 94.7994 102.91 78.368" stroke="#4E4E4E" stroke-width="3.84" stroke-linecap="round" stroke-linejoin="round"/>
  <path fill-rule="evenodd" clip-rule="evenodd" d="M92.2595 43.5775C96.5895 43.5775 100.23 45.9775 101.28 49.2275C98.9195 47.9575 95.7495 47.1675 92.2595 47.1675C88.7695 47.1675 85.5895 47.9475 83.2395 49.2275C84.2895 45.9775 87.9295 43.5775 92.2595 43.5775Z" fill="#4E4E4E" stroke="#4E4E4E" stroke-width="3.84" stroke-linecap="round" stroke-linejoin="round"/>
  <path fill-rule="evenodd" clip-rule="evenodd" d="M53.4194 43.5775C57.7494 43.5775 61.3894 45.9775 62.4394 49.2275C60.0794 47.9575 56.9094 47.1675 53.4194 47.1675C49.9294 47.1675 46.7494 47.9475 44.3994 49.2275C45.4494 45.9775 49.0894 43.5775 53.4194 43.5775Z" fill="#4E4E4E" stroke="#4E4E4E" stroke-width="3.84" stroke-linecap="round" stroke-linejoin="round"/>
  <path d="M98.3096 75.8609C102.64 77.1809 104.7 79.4409 104.73 83.2109" stroke="#4E4E4E" stroke-width="3.84" stroke-linecap="round" stroke-linejoin="round"/>
  <path d="M47.3795 75.8609C43.0495 77.1809 40.9895 79.4409 40.9595 83.2109" stroke="#4E4E4E" stroke-width="3.84" stroke-linecap="round" stroke-linejoin="round"/>
  <path d="M63.6694 26.4069C56.9894 24.2194 45.8394 30.6421 44.3994 37.5243" stroke="#4E4E4E" stroke-width="3.84" stroke-linecap="round" stroke-linejoin="round"/>
</svg>