<svg xmlns="http://www.w3.org/2000/svg" width="127" height="128" viewBox="0 0 127 128" fill="none">
  <path d="M63.49 127.117C98.5546 127.117 126.98 98.7233 126.98 63.6984C126.98 28.6735 98.5546 0.280273 63.49 0.280273C28.4254 0.280273 0 28.6735 0 63.6984C0 98.7233 28.4254 127.117 63.49 127.117Z" fill="#E2A42C"/>
  <path d="M118.168 64.0632C118.369 33.8991 94.0506 9.28415 63.8523 9.08409C33.6541 8.88403 9.01118 33.1747 8.81089 63.3387C8.61061 93.5028 32.9288 118.118 63.127 118.318C93.3253 118.518 117.968 94.2273 118.168 64.0632Z" fill="#ECB540"/>
  <path fill-rule="evenodd" clip-rule="evenodd" d="M42.09 68.0635C44.61 68.0635 46.67 63.0492 46.67 56.8962C46.67 50.7432 44.61 45.7189 42.09 45.7189C39.57 45.7189 37.51 50.7332 37.51 56.8962C37.51 63.0592 39.57 68.0635 42.09 68.0635Z" fill="#4E4E4E"/>
  <path d="M30.96 36.7934C35.65 31.5534 48.52 31.5534 53.22 36.7934" stroke="#4E4E4E" stroke-width="3.84" stroke-linecap="round" stroke-linejoin="round"/>
  <path d="M71.6899 36.7934C76.3799 31.5534 89.2499 31.5534 93.9499 36.7934" stroke="#4E4E4E" stroke-width="3.84" stroke-linecap="round" stroke-linejoin="round"/>
  <path d="M28.9501 76.6138C34.4122 76.6138 38.8401 73.3134 38.8401 69.2422C38.8401 65.1709 34.4122 61.8705 28.9501 61.8705C23.488 61.8705 19.0601 65.1709 19.0601 69.2422C19.0601 73.3134 23.488 76.6138 28.9501 76.6138Z" fill="#E69837"/>
  <path d="M98.0301 76.6138C103.492 76.6138 107.92 73.3134 107.92 69.2422C107.92 65.1709 103.492 61.8705 98.0301 61.8705C92.568 61.8705 88.1401 65.1709 88.1401 69.2422C88.1401 73.3134 92.568 76.6138 98.0301 76.6138Z" fill="#E69837"/>
  <path fill-rule="evenodd" clip-rule="evenodd" d="M82.82 51.2426C87.15 51.2426 90.79 53.6426 91.84 56.8926C89.48 55.6226 86.31 54.8326 82.82 54.8326C79.33 54.8326 76.15 55.6126 73.8 56.8926C74.85 53.6426 78.49 51.2426 82.82 51.2426Z" fill="#4E4E4E" stroke="#4E4E4E" stroke-width="3.84" stroke-linecap="round" stroke-linejoin="round"/>
  <path fill-rule="evenodd" clip-rule="evenodd" d="M93.5599 82.2675C85.2299 113.162 43.2499 110.885 33.4299 82.2675H93.5599Z" fill="#4E4E4E" stroke="#4E4E4E" stroke-width="3.84" stroke-linecap="round" stroke-linejoin="round"/>
  <path fill-rule="evenodd" clip-rule="evenodd" d="M52.8899 90.6479H74.0799V110.415C74.0799 116.239 69.3099 121.003 63.4799 121.003C57.6499 121.003 52.8799 116.239 52.8799 110.415V90.6479H52.8899Z" fill="#DF654D"/>
</svg>